<?xml version="1.0" standalone="no"?>
<!DOCTYPE svg PUBLIC "-//W3C//DTD SVG 1.1//EN" "http://www.w3.org/Graphics/SVG/1.1/DTD/svg11.dtd" >
<svg xmlns="http://www.w3.org/2000/svg" xmlns:xlink="http://www.w3.org/1999/xlink" version="1.1">
<metadata>
Created by FontForge 20161003 at Sat Aug 24 18:23:03 2019
 By www-data
(c) 1989, 1995, 2002 Adobe Systems Incorporated. All rights reserved.
</metadata>
<defs>
<font id="AvenirLTStdLightOblique" horiz-adv-x="520" >
  <font-face 
    font-family="AvenirLTStdLightOblique"
    font-weight="300"
    font-style="oblique"
    font-stretch="normal"
    units-per-em="1000"
    panose-1="2 11 4 2 2 2 3 2 2 4"
    ascent="756"
    descent="-244"
    x-height="462"
    cap-height="708"
    bbox="-168 -277 1039 932"
    underline-thickness="50"
    underline-position="-150"
    slope="-8"
    unicode-range="U+0020-FB02"
  />
<missing-glyph horiz-adv-x="598" 
d="M98 0v700h500v-700h-500zM348 395l170 255h-340zM378 350l170 -255v510zM178 50h340l-170 255zM148 605v-510l170 255z" />
    <glyph glyph-name="f_i" unicode="fi" horiz-adv-x="519" 
d="M369 0l65 462h60l-65 -462h-60zM445 645q2 19 17 32t34 13t30 -13t9 -32q-3 -19 -18 -32t-34 -13t-30 13t-8 32zM114 0l57 408h-96l8 54h96l21 151q12 81 59 118t101 37q42 0 67 -12l-19 -52q-19 10 -53 10q-80 0 -98 -123l-18 -129h108l-8 -54h-108l-57 -408h-60z" />
    <glyph glyph-name="f_l" unicode="fl" horiz-adv-x="519" 
d="M114 0l57 408h-96l8 54h96l21 151q12 81 59 118t101 37q42 0 67 -12l-19 -52q-19 10 -53 10q-80 0 -98 -123l-18 -129h108l-8 -54h-108l-57 -408h-60zM369 0l106 756h60l-106 -756h-60z" />
    <glyph glyph-name=".notdef" horiz-adv-x="598" 
d="M98 0v700h500v-700h-500zM348 395l170 255h-340zM378 350l170 -255v510zM178 50h340l-170 255zM148 605v-510l170 255z" />
    <glyph glyph-name=".null" horiz-adv-x="0" 
 />
    <glyph glyph-name="nonmarkingreturn" horiz-adv-x="333" 
 />
    <glyph glyph-name="space" unicode=" " horiz-adv-x="260" 
 />
    <glyph glyph-name="exclam" unicode="!" horiz-adv-x="370" 
d="M315 708l-74 -522h-60l74 522h60zM143 42q3 20 19 34t36 14t32 -14t9 -34t-19 -34t-36 -14t-32 14t-9 34z" />
    <glyph glyph-name="quotedbl" unicode="&#x22;" 
d="M228 480l33 228h60l-33 -228h-60zM366 480l33 228h60l-33 -228h-60z" />
    <glyph glyph-name="numbersign" unicode="#" 
d="M91 0l62 229h-108l7 48h115l44 156h-108l7 48h115l62 227h52l-63 -227h139l63 227h52l-63 -227h108l-7 -48h-115l-43 -156h108l-7 -48h-115l-62 -229h-52l62 229h-139l-62 -229h-52zM358 277l43 156h-138l-43 -156h138z" />
    <glyph glyph-name="dollar" unicode="$" 
d="M325 314l-38 -272q57 2 100.5 42.5t51.5 100.5q12 79 -73 113zM289 400l38 266q-52 -9 -92 -45.5t-48 -90.5q-6 -49 16 -77.5t70 -46.5zM222 -79l9 67q-56 0 -107 27.5t-78 77.5l63 39q18 -40 52.5 -64t77.5 -26l41 290l-68 26q-33 13 -54.5 35.5t-28.5 45.5t-9.5 47
t1.5 40q11 79 75.5 133t137.5 61l10 67h48l-10 -67q122 0 173 -89l-61 -40q-18 35 -50 55t-69 20l-40 -282l67 -24q51 -19 81.5 -62.5t20.5 -116.5q-12 -82 -78 -135t-147 -58l-9 -67h-48z" />
    <glyph glyph-name="percent" unicode="%" horiz-adv-x="815" 
d="M115 548q10 71 67.5 121.5t128.5 50.5t114.5 -50.5t33.5 -121.5t-67.5 -121.5t-128.5 -50.5t-114.5 50.5t-33.5 121.5zM169 548q-7 -50 22.5 -84t78.5 -34t88.5 34t46.5 84t-22.5 84t-78.5 34t-88.5 -34t-46.5 -84zM455 160q11 71 68.5 121.5t128.5 50.5t114 -50.5
t33 -121.5t-67.5 -121.5t-128.5 -50.5t-114.5 50.5t-33.5 121.5zM509 160q-7 -50 23 -84t79 -34t88 34t46 84t-22.5 84t-78.5 34t-88.5 -34t-46.5 -84zM157 -6l561 748l42 -28l-562 -748z" />
    <glyph glyph-name="ampersand" unicode="&#x26;" horiz-adv-x="704" 
d="M370 388l146 -182l128 184h68l-160 -226l137 -169h-89l-90 114q-55 -62 -111.5 -94.5t-126.5 -32.5q-92 0 -145.5 56.5t-41.5 149.5q6 39 22.5 70.5t48 58t54.5 41t67 39.5q-23 34 -34.5 52.5t-22 52t-6.5 63.5q11 74 69 117.5t132 43.5q65 0 106.5 -42t32.5 -108
q-5 -36 -21 -65t-46.5 -52.5t-52 -36t-64.5 -34.5zM402 666q-45 0 -80 -28t-41 -72q-7 -49 56 -137q32 15 49 24.5t43 28t40 40.5t18 49q6 42 -18 68.5t-67 26.5zM476 151l-167 204q-35 -19 -53.5 -31t-44.5 -33t-40.5 -46t-18.5 -55q-10 -66 30.5 -107t108.5 -41
q97 0 185 109z" />
    <glyph glyph-name="quotesingle" unicode="'" horiz-adv-x="260" 
d="M167 480l33 228h60l-33 -228h-60z" />
    <glyph glyph-name="parenleft" unicode="(" horiz-adv-x="260" 
d="M300 732l46 -32q-73 -79 -122.5 -191t-65.5 -221q-28 -208 72 -414l-51 -30q-55 95 -76 212t-5 232q17 119 70 235.5t132 208.5z" />
    <glyph glyph-name="parenright" unicode=")" horiz-adv-x="260" 
d="M41 -156l-46 32q74 79 123 191t64 221q29 207 -71 414l51 30q56 -96 76.5 -212.5t3.5 -231.5q-16 -118 -69 -235t-132 -209z" />
    <glyph glyph-name="asterisk" unicode="*" horiz-adv-x="444" 
d="M347 708l-22 -152l151 48l8 -48l-150 -47l73 -122l-41 -29l-76 125l-107 -125l-36 29l109 122l-139 50l20 45l140 -48l22 152h48z" />
    <glyph glyph-name="plus" unicode="+" horiz-adv-x="666" 
d="M117 279l7 48h231l32 231h48l-32 -231h231l-7 -48h-231l-32 -231h-48l32 231h-231z" />
    <glyph glyph-name="comma" unicode="," horiz-adv-x="260" 
d="M31 -138l98 228h70l-109 -228h-59z" />
    <glyph glyph-name="hyphen" unicode="-" horiz-adv-x="333" 
d="M73 210l7 54h247l-7 -54h-247z" />
    <glyph glyph-name="period" unicode="." horiz-adv-x="260" 
d="M88 42q3 20 19 34t36 14t32 -14t9 -34t-19 -34t-36 -14t-32 14t-9 34z" />
    <glyph glyph-name="slash" unicode="/" horiz-adv-x="370" 
d="M6 -18l412 762l49 -18l-410 -762z" />
    <glyph glyph-name="zero" unicode="0" 
d="M76 354q7 52 18.5 98t34 97t52 87t76.5 60t104 24q48 0 84 -16t56.5 -45t33 -64t15.5 -78.5t1.5 -82t-7.5 -80.5q-7 -52 -18.5 -98t-34.5 -97t-52.5 -87t-76.5 -60t-104 -24q-48 0 -84 16t-56.5 45t-33 64t-15.5 78t-1 82t8 81zM142 354q-6 -39 -8 -75.5t2 -81.5
t16.5 -77.5t41.5 -55t72 -22.5t78 22.5t57 55t38.5 78t24.5 81t14 75.5q5 40 7.5 75.5t-1.5 81t-17 78t-41.5 55t-71.5 22.5t-78 -22.5t-57 -55t-39 -77.5t-25 -81.5t-13 -75.5z" />
    <glyph glyph-name="one" unicode="1" 
d="M261 0l88 624h-1l-143 -105l-31 46l196 143h51l-100 -708h-60z" />
    <glyph glyph-name="two" unicode="2" 
d="M41 0l10 70l305 281q36 32 56.5 53.5t43 58t27.5 71.5q9 60 -25.5 96t-96.5 36q-54 0 -97 -32t-62 -84l-69 7q29 80 91.5 121.5t146.5 41.5q85 0 138 -49t41 -132q-7 -51 -38.5 -101.5t-60.5 -79t-84 -77.5l-252 -227h372l-8 -54h-438z" />
    <glyph glyph-name="three" unicode="3" 
d="M59 127l68 21q12 -53 44 -79.5t90 -26.5q76 0 123.5 43.5t56.5 110.5q10 73 -40.5 109.5t-126.5 36.5h-26l9 60h30q65 0 116 33.5t60 100.5q8 57 -22.5 93.5t-89.5 36.5q-43 0 -81.5 -22t-64.5 -61l-53 32q72 105 206 105q86 0 135 -47t37 -135q-8 -59 -47.5 -103.5
t-101.5 -60.5l-1 -2q66 -12 100.5 -62.5t25.5 -118.5q-13 -88 -78 -145.5t-170 -57.5q-166 0 -199 139z" />
    <glyph glyph-name="four" unicode="4" 
d="M329 0l24 174h-306l10 71l349 463h83l-68 -480h108l-8 -54h-108l-24 -174h-60zM361 228l58 414h-2l-308 -414h252z" />
    <glyph glyph-name="five" unicode="5" 
d="M551 708l-8 -54h-292l-35 -225q42 20 106 20q99 0 150 -68t37 -166q-15 -107 -93 -167t-165 -60q-148 0 -195 120l67 31q12 -41 50.5 -69t85.5 -28q57 0 115 45.5t69 123.5q11 77 -33 130.5t-119 53.5q-72 0 -147 -48l57 361h350z" />
    <glyph glyph-name="six" unicode="6" 
d="M461 708l-237 -312h2q39 30 109 30q94 0 146.5 -63t39.5 -155q-13 -96 -87.5 -158t-175.5 -62t-157.5 62t-43.5 158q5 34 22 71t30.5 57t38.5 53l237 319h76zM313 374q-69 0 -124.5 -48.5t-65.5 -117.5q-10 -73 29.5 -119.5t113.5 -46.5q73 0 125.5 46t63.5 120
q10 69 -31.5 117.5t-110.5 48.5z" />
    <glyph glyph-name="seven" unicode="7" 
d="M543 708l-8 -54l-374 -654h-67l379 654h-340l8 54h402z" />
    <glyph glyph-name="eight" unicode="8" 
d="M141 536q12 82 74.5 133t145.5 51q84 0 132 -51.5t36 -132.5q-7 -51 -45 -96.5t-90 -59.5v-1q64 -14 93 -64.5t20 -117.5q-13 -94 -83.5 -151.5t-165.5 -57.5t-148.5 57.5t-40.5 151.5q9 66 52.5 117t110.5 65v1q-48 14 -73 59.5t-18 96.5zM207 536q-8 -54 23 -92t87 -38
t97 38t49 92q8 58 -23 94t-86 36t-97 -36t-50 -94zM135 197q-9 -65 27 -110t104 -45t117 45t58 110q10 68 -28.5 111.5t-103.5 43.5t-114.5 -43t-59.5 -112z" />
    <glyph glyph-name="nine" unicode="9" 
d="M159 0l237 312h-2q-40 -30 -109 -30q-94 0 -147 63t-40 155q13 96 87.5 158t175.5 62t157.5 -62t43.5 -158q-5 -34 -22.5 -72t-29 -55t-38.5 -54l-237 -319h-76zM307 334q69 0 124 48.5t65 117.5q11 74 -29 120t-113 46q-74 0 -127 -46.5t-63 -119.5q-10 -69 32 -117.5
t111 -48.5z" />
    <glyph glyph-name="colon" unicode=":" horiz-adv-x="260" 
d="M141 420q3 20 19 34t36 14t32 -14t9 -34t-19 -34t-36 -14t-32 14t-9 34zM88 42q3 20 19 34t36 14t32 -14t9 -34t-19 -34t-36 -14t-32 14t-9 34z" />
    <glyph glyph-name="semicolon" unicode=";" horiz-adv-x="260" 
d="M31 -138l98 228h70l-109 -228h-59zM141 420q3 20 19 34t36 14t32 -14t9 -34t-19 -34t-36 -14t-32 14t-9 34z" />
    <glyph glyph-name="less" unicode="&#x3c;" horiz-adv-x="666" 
d="M663 561l-7 -50l-477 -208l418 -208l-7 -50l-469 234l7 48z" />
    <glyph glyph-name="equal" unicode="=" horiz-adv-x="666" 
d="M127 351l7 48h510l-7 -48h-510zM107 207l7 48h510l-7 -48h-510z" />
    <glyph glyph-name="greater" unicode="&#x3e;" horiz-adv-x="666" 
d="M88 45l7 50l478 208l-419 208l7 50l469 -234l-7 -48z" />
    <glyph glyph-name="question" unicode="?" horiz-adv-x="463" 
d="M230 186l12 84q5 37 25.5 67t46.5 52l52 44t46 52t25 66q8 54 -19 87.5t-81 33.5q-51 0 -90 -31.5t-57 -84.5l-64 8q24 76 83.5 119t134.5 43q81 0 126 -46t34 -126q-7 -46 -28.5 -81.5t-48.5 -58.5t-54 -44t-48 -51.5t-26 -68.5l-9 -64h-60zM193 42q3 20 19 34t36 14
t32 -14t9 -34t-19 -34t-36 -14t-32 14t-9 34z" />
    <glyph glyph-name="at" unicode="@" horiz-adv-x="800" 
d="M293 280q-5 -42 14 -68.5t57 -26.5q66 0 128.5 77.5t72.5 149.5q14 102 -67 102q-71 0 -132 -77.5t-73 -156.5zM699 549l-138 -290q-15 -31 -17 -48q-5 -26 22 -26q53 0 118.5 79t77.5 162q15 109 -60 180.5t-191 71.5q-134 0 -239.5 -96.5t-123.5 -226.5
q-19 -134 61.5 -229.5t212.5 -95.5q74 0 149.5 37t123.5 95h58q-57 -82 -150 -131t-188 -49q-161 0 -252 108t-69 265q22 156 144.5 263.5t277.5 107.5q146 0 232 -86t68 -214q-17 -121 -102.5 -208t-173.5 -87q-27 0 -41.5 17.5t-10.5 49.5h-2q-27 -27 -65 -47t-74 -20
q-65 0 -94 42t-20 105q16 112 94.5 201t182.5 89q36 0 62 -20t32 -63h2l33 64h60z" />
    <glyph glyph-name="A" unicode="A" horiz-adv-x="685" 
d="M5 0l409 708h68l198 -708h-74l-51 188h-375l-106 -188h-69zM540 248l-106 388l-219 -388h325z" />
    <glyph glyph-name="B" unicode="B" horiz-adv-x="630" 
d="M97 0l100 708h204q46 0 81 -7t67.5 -26t46.5 -58t6 -96q-8 -56 -46 -95.5t-101 -51.5l-1 -2q70 -5 107 -52.5t27 -121.5q-8 -58 -36.5 -99t-69.5 -61.5t-79.5 -29t-79.5 -8.5h-226zM254 648l-34 -246h137q91 0 132 37t47 82q18 127 -136 127h-146zM211 342l-40 -282h151
q55 0 95 13.5t61 36t31 43.5t13 43q10 73 -35 109.5t-115 36.5h-161z" />
    <glyph glyph-name="C" unicode="C" horiz-adv-x="704" 
d="M647 152l49 -41q-112 -129 -282 -129q-161 0 -248.5 104.5t-64.5 267.5t140 267.5t278 104.5q158 0 228 -111l-60 -45q-25 47 -72.5 71.5t-103.5 24.5q-136 0 -231 -88.5t-113 -223.5q-19 -135 50.5 -223.5t205.5 -88.5q58 0 120 28t104 82z" />
    <glyph glyph-name="D" unicode="D" horiz-adv-x="741" 
d="M88 0l100 708h219q75 0 134 -17.5t94.5 -43.5t59 -62.5t33.5 -69t13 -69t2 -56t-3 -36.5q-3 -18 -7 -36.5t-18 -56t-33 -69.5t-53 -68.5t-76.5 -62.5t-106.5 -43.5t-139 -17.5h-219zM245 648l-83 -588h136q149 0 252 74t124 220q20 146 -62 220t-231 74h-136z" />
    <glyph glyph-name="E" unicode="E" horiz-adv-x="593" 
d="M97 0l100 708h433l-9 -60h-367l-35 -252h344l-9 -60h-344l-39 -276h383l-8 -60h-449z" />
    <glyph glyph-name="F" unicode="F" horiz-adv-x="556" 
d="M97 0l100 708h424l-9 -60h-358l-35 -252h333l-9 -60h-333l-47 -336h-66z" />
    <glyph glyph-name="G" unicode="G" horiz-adv-x="778" 
d="M735 382l-48 -336q-120 -64 -273 -64q-161 0 -248.5 104.5t-64.5 267.5t140 267.5t278 104.5q159 0 241 -98l-55 -50q-26 39 -81 63.5t-113 24.5q-136 0 -231 -88.5t-113 -223.5q-19 -135 50.5 -223.5t205.5 -88.5q127 0 204 42l33 238h-170l9 60h236z" />
    <glyph glyph-name="H" unicode="H" horiz-adv-x="722" 
d="M97 0l100 708h66l-44 -312h396l44 312h66l-100 -708h-66l47 336h-396l-47 -336h-66z" />
    <glyph glyph-name="I" unicode="I" horiz-adv-x="260" 
d="M97 0l100 708h66l-100 -708h-66z" />
    <glyph glyph-name="J" unicode="J" horiz-adv-x="482" 
d="M485 708l-71 -500q-5 -32 -10.5 -57t-21.5 -58.5t-38.5 -56t-63 -38.5t-92.5 -16q-75 0 -116 38.5t-47 106.5l68 12q9 -97 104 -97q128 0 149 150l73 516h66z" />
    <glyph glyph-name="K" unicode="K" horiz-adv-x="611" 
d="M97 0l100 708h66l-44 -312h6l387 312h91l-404 -324l324 -384h-95l-308 366h-6l-51 -366h-66z" />
    <glyph glyph-name="L" unicode="L" horiz-adv-x="500" 
d="M97 0l100 708h66l-92 -648h330l-8 -60h-396z" />
    <glyph glyph-name="M" unicode="M" horiz-adv-x="889" 
d="M90 0l100 708h99l174 -594l342 594h94l-100 -708h-66l88 624h-2l-358 -624h-29l-186 624h-2l-88 -624h-66z" />
    <glyph glyph-name="N" unicode="N" horiz-adv-x="778" 
d="M97 0l100 708h85l343 -620h2l88 620h66l-100 -708h-85l-344 620h-2l-87 -620h-66z" />
    <glyph glyph-name="O" unicode="O" horiz-adv-x="834" 
d="M101 354q23 163 140 267.5t278 104.5t249 -104.5t65 -267.5t-140.5 -267.5t-278.5 -104.5t-248.5 104.5t-64.5 267.5zM167 354q-19 -135 50.5 -223.5t205.5 -88.5t230.5 88.5t113.5 223.5q18 135 -51 223.5t-205 88.5t-231 -88.5t-113 -223.5z" />
    <glyph glyph-name="P" unicode="P" horiz-adv-x="574" 
d="M97 0l100 708h204q32 0 61.5 -5t58.5 -18.5t48.5 -33.5t29 -53.5t3.5 -76.5q-13 -91 -81 -138t-158 -47h-153l-47 -336h-66zM254 648l-35 -252h150q63 0 110.5 30t56.5 95q9 64 -31.5 95.5t-104.5 31.5h-146z" />
    <glyph glyph-name="Q" unicode="Q" horiz-adv-x="834" 
d="M821 60l-8 -60h-390q-74 0 -137.5 26.5t-108.5 73t-65.5 115t-9.5 148.5q22 157 135.5 260t274.5 103t245.5 -103t62.5 -260q-13 -97 -74 -184t-145 -117l-1 -2h221zM168 363q-18 -127 56 -215t205 -88q130 0 219 89t106 214q18 132 -48.5 217.5t-201.5 85.5
t-226.5 -85.5t-109.5 -217.5z" />
    <glyph glyph-name="R" unicode="R" horiz-adv-x="593" 
d="M254 648l-35 -252h140q49 0 85.5 12.5t56 33t29 40t12.5 40.5t-1 40.5t-18 40t-47 33t-82 12.5h-140zM97 0l100 708h186q19 0 32 -0.5t41 -4t48 -10t44 -20.5t37.5 -33t21 -49.5t1.5 -68.5q-22 -159 -206 -182l158 -340h-75l-152 336h-123l-47 -336h-66z" />
    <glyph glyph-name="S" unicode="S" horiz-adv-x="556" 
d="M66 89l68 42q41 -89 150 -89q68 0 118.5 38t59.5 101q6 40 -10.5 67.5t-46.5 42t-67 26.5t-74 26.5t-66 35.5t-44 59.5t-7 93.5q12 90 85.5 142t168.5 52q124 0 181 -89l-63 -41q-41 70 -128 70q-68 0 -118.5 -35t-59.5 -99q-6 -43 10 -72t46 -44.5t67.5 -27t74.5 -25
t66 -33.5t44 -57.5t7 -91.5q-13 -92 -85 -145.5t-163 -53.5q-153 0 -214 107z" />
    <glyph glyph-name="T" unicode="T" horiz-adv-x="574" 
d="M254 0l91 648h-242l9 60h550l-9 -60h-242l-91 -648h-66z" />
    <glyph glyph-name="U" unicode="U" horiz-adv-x="684" 
d="M700 708l-62 -437q-18 -126 -91 -207.5t-208 -81.5q-70 0 -118.5 24t-70.5 64t-30 92t2 109l62 437h66l-60 -420q-5 -34 -5 -64.5t7.5 -65t24.5 -59t50.5 -41t80.5 -16.5t85 16.5t62 41t41 59t25 65t13 64.5l60 420h66z" />
    <glyph glyph-name="V" unicode="V" horiz-adv-x="593" 
d="M261 0l-164 708h71l140 -621l318 621h70l-369 -708h-66z" />
    <glyph glyph-name="W" unicode="W" horiz-adv-x="944" 
d="M211 0l-106 708h68l87 -627h2l268 627h84l90 -627h2l265 627h68l-306 -708h-81l-90 630h-2l-268 -630h-81z" />
    <glyph glyph-name="X" unicode="X" horiz-adv-x="611" 
d="M1 0l318 372l-194 336h78l163 -288l242 288h79l-288 -336l211 -372h-82l-179 320l-269 -320h-79z" />
    <glyph glyph-name="Y" unicode="Y" horiz-adv-x="574" 
d="M254 0l43 305l-203 403h79l166 -336l267 336h74l-317 -403l-43 -305h-66z" />
    <glyph glyph-name="Z" unicode="Z" horiz-adv-x="556" 
d="M23 0l7 52l498 596h-408l9 60h493l-8 -54l-501 -594h428l-8 -60h-510z" />
    <glyph glyph-name="bracketleft" unicode="[" horiz-adv-x="260" 
d="M327 732l-7 -48h-90l-111 -792h90l-7 -48h-150l125 888h150z" />
    <glyph glyph-name="backslash" unicode="\" horiz-adv-x="370" 
d="M162 744l196 -762l-55 -18l-196 762z" />
    <glyph glyph-name="bracketright" unicode="]" horiz-adv-x="260" 
d="M14 -156l7 48h90l111 792h-90l7 48h150l-125 -888h-150z" />
    <glyph glyph-name="asciicircum" unicode="^" horiz-adv-x="666" 
d="M118 256l292 452h46l164 -452h-56l-139 398l-250 -398h-57z" />
    <glyph glyph-name="underscore" unicode="_" horiz-adv-x="500" 
d="M-18 -125l7 50h500l-7 -50h-500z" />
    <glyph glyph-name="grave" unicode="`" horiz-adv-x="240" 
d="M174 708l83 -144h-50l-113 144h80z" />
    <glyph glyph-name="a" unicode="a" horiz-adv-x="519" 
d="M482 307l-16 -113q-18 -135 -18 -194h-56q-1 33 5 75h-2q-63 -87 -175 -87q-67 0 -110 34.5t-33 102.5q21 155 277 155h70l4 28q9 57 -23 84.5t-91 27.5q-80 0 -148 -52l-30 41q36 30 87.5 47.5t98.5 17.5q87 0 129.5 -41t30.5 -126zM418 232h-66q-86 0 -146.5 -24.5
t-68.5 -79.5q-6 -40 23 -63t70 -23q88 0 130.5 45.5t52.5 113.5z" />
    <glyph glyph-name="b" unicode="b" horiz-adv-x="611" 
d="M67 0l106 756h60l-52 -375h2q33 45 87.5 69t110.5 24q106 0 164.5 -68.5t43.5 -174.5q-14 -106 -92.5 -174.5t-184.5 -68.5q-56 0 -104 24t-68 69h-2l-11 -81h-60zM153 231q-11 -79 37.5 -134t129.5 -55q83 0 140.5 54.5t68.5 134.5q12 80 -30.5 134.5t-125.5 54.5
q-81 0 -145 -55t-75 -134z" />
    <glyph glyph-name="c" unicode="c" horiz-adv-x="481" 
d="M436 106l41 -38q-79 -80 -182 -80q-106 0 -164.5 68.5t-44.5 174.5q15 106 93.5 174.5t184.5 68.5q102 0 160 -80l-53 -36q-47 62 -115 62q-83 0 -140.5 -54.5t-69.5 -134.5q-11 -80 31.5 -134.5t125.5 -54.5q72 0 133 64z" />
    <glyph glyph-name="d" unicode="d" horiz-adv-x="611" 
d="M484 0l11 81h-2q-33 -45 -87.5 -69t-110.5 -24q-106 0 -164.5 68.5t-44.5 174.5q15 106 93.5 174.5t184.5 68.5q56 0 104 -24t68 -69h2l52 375h60l-106 -756h-60zM522 231q11 78 -37 133.5t-129 55.5q-83 0 -140.5 -54.5t-69.5 -134.5q-11 -80 31.5 -134.5t125.5 -54.5
q81 0 144.5 55.5t74.5 133.5z" />
    <glyph glyph-name="e" unicode="e" horiz-adv-x="556" 
d="M461 124l39 -37q-81 -99 -214 -99q-105 0 -159.5 68t-39.5 176q14 104 89 173t176 69t149.5 -64.5t36.5 -151.5l-6 -42h-388q-3 -22 1.5 -49t18.5 -56.5t48 -49t83 -19.5q46 0 92.5 22.5t73.5 59.5zM152 270h328q8 62 -32.5 106t-106.5 44q-45 0 -83.5 -19.5t-59.5 -47
t-33 -49.5t-13 -34z" />
    <glyph glyph-name="f" unicode="f" horiz-adv-x="296" 
d="M114 0l57 408h-96l8 54h96l21 151q12 81 59 118t101 37q42 0 67 -12l-19 -52q-19 10 -53 10q-80 0 -98 -123l-18 -129h108l-8 -54h-108l-57 -408h-60z" />
    <glyph glyph-name="g" unicode="g" horiz-adv-x="611" 
d="M609 462l-61 -432q-11 -81 -43.5 -138t-76.5 -84t-83.5 -37.5t-80.5 -10.5q-71 0 -129 26t-86 71l53 44q50 -87 170 -87q52 0 92 18t61 40.5t36 57.5t19 53t8 43l9 64h-2q-70 -90 -188 -90q-102 0 -165 69.5t-49 167.5t96.5 167.5t184.5 69.5q118 0 162 -90h2l11 78h60z
M519 237q11 76 -35 129.5t-122 53.5t-137 -53.5t-72 -129.5q-10 -76 36 -129.5t122 -53.5t136.5 53.5t71.5 129.5z" />
    <glyph glyph-name="h" unicode="h" horiz-adv-x="556" 
d="M80 0l106 756h60l-52 -375h2q24 40 70.5 66.5t100.5 26.5q176 0 148 -199l-39 -275h-60l38 272q22 148 -95 148q-70 0 -122 -49t-65 -140l-32 -231h-60z" />
    <glyph glyph-name="i" unicode="i" horiz-adv-x="240" 
d="M90 0l65 462h60l-65 -462h-60zM166 645q2 19 17 32t34 13t30 -13t9 -32q-3 -19 -18 -32t-34 -13t-30 13t-8 32z" />
    <glyph glyph-name="j" unicode="j" horiz-adv-x="240" 
d="M215 462l-76 -543q-12 -78 -46 -118.5t-109 -40.5q-24 0 -46 9l16 53q19 -8 37 -8q44 0 62.5 26.5t24.5 73.5l77 548h60zM166 645q2 19 17 32t34 13t30 -13t9 -32q-3 -19 -18 -32t-34 -13t-30 13t-8 32z" />
    <glyph glyph-name="k" unicode="k" horiz-adv-x="481" 
d="M80 0l106 756h60l-71 -504l258 209h88l-268 -211l231 -250h-91l-219 244l-34 -244h-60z" />
    <glyph glyph-name="l" unicode="l" horiz-adv-x="240" 
d="M90 0l106 756h60l-106 -756h-60z" />
    <glyph glyph-name="m" unicode="m" horiz-adv-x="852" 
d="M80 0l47 332q2 17 7 67.5t6 62.5h60q-8 -70 -7 -81h3q24 40 70.5 66.5t100.5 26.5q48 0 82 -25t43 -75q27 49 73.5 74.5t97.5 25.5q176 0 148 -199l-39 -275h-60l38 272q22 148 -95 148q-52 0 -89 -27.5t-52.5 -61t-20.5 -71.5l-37 -260h-60l39 278q9 66 -10 104t-66 38
q-70 0 -122 -49t-65 -140l-32 -231h-60z" />
    <glyph glyph-name="n" unicode="n" horiz-adv-x="556" 
d="M80 0l47 332q2 17 7 67.5t6 62.5h60q-8 -70 -7 -81h3q24 40 70.5 66.5t100.5 26.5q176 0 148 -199l-39 -275h-60l38 272q22 148 -95 148q-70 0 -122 -49t-65 -140l-32 -231h-60z" />
    <glyph glyph-name="o" unicode="o" horiz-adv-x="594" 
d="M86 231q15 106 93.5 174.5t184.5 68.5t164.5 -68.5t43.5 -174.5q-14 -106 -92.5 -174.5t-184.5 -68.5t-164.5 68.5t-44.5 174.5zM146 231q-11 -80 31.5 -134.5t125.5 -54.5t140.5 54.5t68.5 134.5q12 80 -30.5 134.5t-125.5 54.5t-140.5 -54.5t-69.5 -134.5z" />
    <glyph glyph-name="p" unicode="p" horiz-adv-x="611" 
d="M35 -228l97 690h60l-11 -81h2q33 45 87.5 69t110.5 24q106 0 164.5 -68.5t43.5 -174.5q-14 -106 -92.5 -174.5t-184.5 -68.5q-56 0 -104 24t-68 69h-2l-43 -309h-60zM153 231q-11 -79 37.5 -134t129.5 -55q83 0 140.5 54.5t68.5 134.5q12 80 -30.5 134.5t-125.5 54.5
q-81 0 -145 -55t-75 -134z" />
    <glyph glyph-name="q" unicode="q" horiz-adv-x="611" 
d="M452 -228l43 309h-2q-33 -45 -87.5 -69t-110.5 -24q-106 0 -164.5 68.5t-44.5 174.5q15 106 93.5 174.5t184.5 68.5q56 0 104 -24t68 -69h2l11 81h60l-97 -690h-60zM522 231q11 78 -37 133.5t-129 55.5q-83 0 -140.5 -54.5t-69.5 -134.5q-11 -80 31.5 -134.5t125.5 -54.5
q81 0 144.5 55.5t74.5 133.5z" />
    <glyph glyph-name="r" unicode="r" horiz-adv-x="333" 
d="M80 0l47 332q2 17 7 67.5t6 62.5h60q-8 -70 -7 -81q64 93 160 93q14 0 34 -5l-15 -59q-12 4 -23 4q-74 0 -119 -45t-55 -117l-35 -252h-60z" />
    <glyph glyph-name="s" unicode="s" horiz-adv-x="426" 
d="M40 82l58 36q13 -36 47 -56t76 -20q41 0 76.5 23.5t41.5 61.5q5 35 -20.5 53.5t-65 26.5t-78 18.5t-63 38.5t-17.5 77q9 63 61.5 98t115.5 35q119 0 150 -87l-58 -32q-26 65 -100 65q-36 0 -70 -20.5t-38 -53.5q-5 -34 20.5 -51.5t65 -25t78.5 -17.5t62.5 -39.5
t16.5 -81.5q-9 -68 -63 -105.5t-124 -37.5q-132 0 -172 94z" />
    <glyph glyph-name="t" unicode="t" horiz-adv-x="333" 
d="M371 462l-8 -54h-132l-42 -301q-4 -31 10.5 -48t44.5 -17q31 0 70 16l-2 -54q-48 -16 -81 -16q-61 0 -85 32.5t-17 86.5l42 301h-100l8 54h100l19 133h60l-19 -133h132z" />
    <glyph glyph-name="u" unicode="u" horiz-adv-x="556" 
d="M536 462l-47 -332q-3 -19 -7.5 -70.5t-5.5 -59.5h-60q8 70 7 81h-3q-24 -40 -70.5 -66.5t-100.5 -26.5q-176 0 -148 199l39 275h60l-38 -272q-22 -148 95 -148q70 0 122 49t64 140l33 231h60z" />
    <glyph glyph-name="v" unicode="v" horiz-adv-x="463" 
d="M204 0l-124 462h68l98 -397l206 397h61l-247 -462h-62z" />
    <glyph glyph-name="w" unicode="w" horiz-adv-x="704" 
d="M160 0l-80 462h66l58 -387h2l183 387h57l83 -387h2l163 387h60l-201 -462h-62l-85 378h-2l-182 -378h-62z" />
    <glyph glyph-name="x" unicode="x" horiz-adv-x="481" 
d="M6 0l227 250l-135 212h77l103 -175l152 175h75l-193 -212l163 -250h-78l-132 209l-187 -209h-72z" />
    <glyph glyph-name="y" unicode="y" horiz-adv-x="463" 
d="M513 462l-323 -605q-51 -97 -141 -97q-25 0 -57 9l13 56q37 -11 53 -11q21 0 38.5 13t27.5 27t22 37l57 107l-123 464h67l98 -389l204 389h64z" />
    <glyph glyph-name="z" unicode="z" horiz-adv-x="426" 
d="M27 0l5 36l329 372h-263l8 54h346l-5 -36l-328 -372h288l-8 -54h-372z" />
    <glyph glyph-name="braceleft" unicode="{" horiz-adv-x="333" 
d="M377 732l-7 -48h-23q-55 0 -69 -98l-19 -141q-6 -47 -27.5 -85t-37.5 -52t-27 -19l-1 -2q10 -6 22 -20t22.5 -51.5t3.5 -84.5l-20 -142q-12 -97 42 -97h23l-7 -48h-50q-42 0 -60.5 32.5t-10.5 88.5l21 146q22 153 -49 153l7 48q71 0 91 154l21 145q8 56 35.5 88.5
t69.5 32.5h50z" />
    <glyph glyph-name="bar" unicode="|" horiz-adv-x="344" 
d="M197 832h53v-1109h-53v1109z" />
    <glyph glyph-name="braceright" unicode="}" horiz-adv-x="333" 
d="M37 -156l7 48h23q55 0 69 98l19 141q5 36 18 67t28.5 49t27 27.5t18.5 12.5l1 2q-10 6 -22 20t-22.5 51.5t-3.5 84.5l20 142q12 97 -42 97h-23l7 48h50q42 0 60.5 -32.5t10.5 -88.5l-21 -146q-22 -153 49 -153l-7 -48q-70 0 -92 -154l-20 -145q-8 -56 -35.5 -88.5
t-69.5 -32.5h-50z" />
    <glyph glyph-name="asciitilde" unicode="~" horiz-adv-x="666" 
d="M580 364l30 -32q-57 -90 -138 -90q-31 0 -110 36q-68 32 -93 32q-44 0 -98 -68l-29 32q58 90 137 90q31 0 110 -36q68 -32 94 -32q27 0 49 17.5t48 50.5z" />
    <glyph glyph-name="uni00A0" unicode="&#xa0;" horiz-adv-x="260" 
 />
    <glyph glyph-name="exclamdown" unicode="&#xa1;" horiz-adv-x="370" 
d="M124 -222l73 522h60l-73 -522h-60zM295 444q-2 -20 -18 -34t-36 -14t-32 14t-10 34q3 20 19 34t36 14t32 -14t9 -34z" />
    <glyph glyph-name="cent" unicode="&#xa2;" 
d="M263 47l52 370q-68 -10 -114.5 -62.5t-55.5 -121.5q-9 -67 23 -120t95 -66zM363 418l-53 -376q67 3 125 64l41 -38q-76 -77 -174 -80l-9 -69h-48l10 72q-90 13 -137 80.5t-33 161.5q13 93 79 159t158 79l10 72h48l-10 -71q96 -1 153 -78l-53 -36q-42 55 -107 60z" />
    <glyph glyph-name="sterling" unicode="&#xa3;" 
d="M58 0l8 54h105l40 288h-95l8 54h95l16 117q12 80 72.5 143.5t166.5 63.5q81 0 135 -56l-46 -48q-43 50 -99 50q-69 0 -111.5 -46t-50.5 -100l-17 -124h165l-8 -54h-165l-40 -288h245l-8 -54h-416z" />
    <glyph glyph-name="currency" unicode="&#xa4;" 
d="M34 142l65 55q-51 66 -38 157q12 92 82 157l-49 55l39 37l49 -56q76 53 162 53q87 0 148 -53l65 56l29 -37l-65 -55q50 -64 38 -157q-14 -93 -82 -157l49 -55l-39 -37l-49 56q-76 -53 -163 -53q-86 0 -147 53l-65 -56zM121 354q-11 -79 37 -135.5t125 -56.5t141 56.5
t75 135.5q11 80 -36.5 136t-125.5 56t-141.5 -56t-74.5 -136z" />
    <glyph glyph-name="yen" unicode="&#xa5;" 
d="M227 0l25 180h-170l7 48h170l11 77l-7 16h-161l7 48h134l-143 339h68l143 -344l244 344h65l-239 -339h134l-7 -48h-161l-11 -16l-11 -77h170l-7 -48h-170l-25 -180h-66z" />
    <glyph glyph-name="brokenbar" unicode="&#xa6;" horiz-adv-x="344" 
d="M197 749h52v-388h-52v388zM197 194h52v-387h-52v387z" />
    <glyph glyph-name="section" unicode="&#xa7;" 
d="M244 227l95 -52q32 16 58.5 41.5t30.5 54.5q8 58 -60 98l-69 41q-101 -32 -111 -95q-5 -34 9.5 -52t46.5 -36zM61 -24l65 30q21 -90 117 -90q49 0 89 26t46 71q5 37 -21.5 64.5t-68 46.5t-82 41t-66 59.5t-18.5 88.5q12 84 124 129q-74 49 -64 127q10 73 71.5 115
t136.5 42q54 0 94.5 -23t52.5 -71l-63 -34q-20 68 -95 68q-49 0 -87 -25.5t-44 -71.5q-4 -30 14 -54t47.5 -39t64.5 -34t64 -38t46 -51.5t11 -74.5q-12 -83 -107 -132q69 -45 57 -123q-11 -77 -72 -122t-137 -45q-66 0 -113.5 30t-61.5 90z" />
    <glyph glyph-name="dieresis" unicode="&#xa8;" horiz-adv-x="240" 
d="M69 652q2 20 18 34t36 14t32 -14t10 -34q-3 -20 -19 -34t-36 -14t-32 14t-9 34zM259 652q2 20 18 34t36 14t32 -14t10 -34q-3 -20 -19 -34t-36 -14t-32 14t-9 34z" />
    <glyph glyph-name="copyright" unicode="&#xa9;" horiz-adv-x="800" 
d="M655 431h-54q-4 44 -34 73.5t-82 30.5q-74 0 -124.5 -52t-61.5 -129t25 -129t110 -52q52 0 91.5 30t53.5 74h54q-20 -72 -76.5 -112t-129.5 -40q-100 0 -148.5 64t-33.5 165q14 101 80 165t166 64q73 0 118.5 -40t45.5 -112zM78 354q22 154 146 263t278 109t248 -109
t72 -263t-146.5 -263t-278.5 -109t-247.5 109t-71.5 263zM132 354q-19 -132 61 -225t212 -93t238 93t125 225q18 132 -62 225t-212 93t-238 -93t-124 -225z" />
    <glyph glyph-name="ordfeminine" unicode="&#xaa;" horiz-adv-x="337" 
d="M271 602h64l1 9q3 34 -12.5 50.5t-61.5 16.5q-50 0 -99 -35l-20 38q52 39 136 39q61 0 87 -25t18 -84l-11 -80q-10 -68 -10 -101h-49q-1 8 1 25.5t2 20.5h-2q-39 -52 -111 -52q-47 0 -76 20t-23 61q14 97 166 97zM329 560h-38q-131 0 -138 -53q-2 -17 18 -29t48 -12
q48 0 76 27.5t33 59.5z" />
    <glyph glyph-name="guillemotleft" unicode="&#xab;" horiz-adv-x="481" 
d="M205 34l-109 203l166 203l38 -29l-141 -174l94 -176zM371 34l-109 203l166 203l38 -29l-141 -174l94 -176z" />
    <glyph glyph-name="logicalnot" unicode="&#xac;" horiz-adv-x="666" 
d="M559 134l30 217h-462l7 48h510l-37 -265h-48z" />
    <glyph glyph-name="uni00AD" unicode="&#xad;" horiz-adv-x="333" 
d="M73 210l7 54h247l-7 -54h-247z" />
    <glyph glyph-name="registered" unicode="&#xae;" horiz-adv-x="800" 
d="M365 329l-26 -188h-54l60 429h165q71 0 98.5 -30t19.5 -89q-14 -104 -125 -122l102 -188h-61l-102 188h-77zM392 522l-20 -145h69q28 0 45.5 2t38.5 8.5t33 22.5t16 41q5 38 -20.5 54.5t-65.5 16.5h-96zM78 354q22 154 146 263t278 109t248 -109t72 -263t-146.5 -263
t-278.5 -109t-247.5 109t-71.5 263zM132 354q-19 -132 61 -225t212 -93t238 93t125 225q18 132 -62 225t-212 93t-238 -93t-124 -225z" />
    <glyph glyph-name="macron" unicode="&#xaf;" horiz-adv-x="240" 
d="M344 654l-7 -48h-264l7 48h264z" />
    <glyph glyph-name="degree" unicode="&#xb0;" horiz-adv-x="400" 
d="M261 432q-60 0 -96 42t-28 103q8 60 56 101.5t108 41.5t96 -41.5t28 -101.5q-8 -61 -56 -103t-108 -42zM267 480q40 0 72.5 28t37.5 68t-19 68t-64 28t-72 -28t-37 -68t18.5 -68t63.5 -28z" />
    <glyph glyph-name="plusminus" unicode="&#xb1;" horiz-adv-x="666" 
d="M124 327l7 48h228l25 183h48l-25 -183h234l-7 -48h-234l-26 -183h-48l26 183h-228zM89 48l6 48h502l-6 -48h-502z" />
    <glyph glyph-name="twosuperior" unicode="&#xb2;" horiz-adv-x="338" 
d="M64 289l6 43l195 168q27 23 39.5 35t25.5 32t16 42q4 28 -16.5 45.5t-59.5 17.5q-66 0 -94 -59l-50 4q20 53 64 78t89 25q60 0 94 -29.5t27 -79.5q-4 -30 -23.5 -59.5t-37.5 -47t-53 -46.5l-144 -121h220l-6 -48h-292z" />
    <glyph glyph-name="threesuperior" unicode="&#xb3;" horiz-adv-x="338" 
d="M196 488l6 48h23q37 0 69 18.5t37 56.5q4 26 -15 43.5t-54 17.5q-57 0 -95 -50l-35 25q56 73 137 73q56 0 89.5 -29.5t26.5 -78.5q-4 -33 -31.5 -60t-64.5 -39v-2q42 -6 63 -36t16 -71q-8 -55 -53.5 -88t-108.5 -33q-106 0 -127 89l50 18q15 -59 84 -59q34 0 65.5 23
t35.5 53q6 44 -22.5 62.5t-78.5 18.5h-17z" />
    <glyph glyph-name="acute" unicode="&#xb4;" horiz-adv-x="240" 
d="M141 564l125 144h80l-155 -144h-50z" />
    <glyph glyph-name="mu" unicode="&#xb5;" horiz-adv-x="556" 
d="M536 462l-47 -332q-3 -19 -7.5 -70.5t-5.5 -59.5h-60q8 70 7 81h-3q-24 -40 -70.5 -66.5t-100.5 -26.5q-75 0 -111 38l-36 -254h-59l97 690h60l-38 -272q-22 -148 95 -148q70 0 122 49t64 140l33 231h60z" />
    <glyph glyph-name="paragraph" unicode="&#xb6;" horiz-adv-x="600" 
d="M249 -126l63 449q-87 0 -139 55.5t-41 133.5q13 94 79 145t172 51h227l-118 -834h-60l111 786h-123l-111 -786h-60z" />
    <glyph glyph-name="periodcentered" unicode="&#xb7;" horiz-adv-x="260" 
d="M127 318q2 20 18 34t36 14t32 -14t10 -34q-3 -20 -19 -34t-36 -14t-32 14t-9 34z" />
    <glyph glyph-name="cedilla" unicode="&#xb8;" horiz-adv-x="240" 
d="M171 0l-56 -64l2 -2q13 7 32 7q34 0 55.5 -19t17.5 -53q-6 -42 -43 -63.5t-81 -21.5q-50 0 -92 21l18 32q30 -17 74 -17q23 0 44.5 11t24.5 32t-12.5 31.5t-37.5 10.5q-24 0 -45 -8l-14 15l75 88h38z" />
    <glyph glyph-name="onesuperior" unicode="&#xb9;" horiz-adv-x="338" 
d="M218 289l52 371l-95 -66l-20 34l122 86h54l-59 -425h-54z" />
    <glyph glyph-name="ordmasculine" unicode="&#xba;" horiz-adv-x="386" 
d="M114 572q10 66 59 107t120 41q70 0 109.5 -40.5t29.5 -107.5q-9 -65 -60 -106.5t-120 -41.5q-71 0 -109 41t-29 107zM162 572q-5 -43 21.5 -74.5t73.5 -31.5q48 0 84.5 31t42.5 75q7 46 -20 76t-77 30q-47 0 -83 -31.5t-42 -74.5z" />
    <glyph glyph-name="guillemotright" unicode="&#xbb;" horiz-adv-x="481" 
d="M177 440l108 -203l-165 -203l-38 29l140 174l-93 176zM343 440l108 -203l-165 -203l-38 29l140 174l-93 176z" />
    <glyph glyph-name="onequarter" unicode="&#xbc;" horiz-adv-x="778" 
d="M624 0l14 102h-190l7 45l224 277h59l-39 -274h64l-7 -48h-64l-14 -102h-54zM645 150l28 202h-2l-162 -202h136zM187 289l52 371l-95 -66l-20 34l122 86h54l-59 -425h-54zM114 -6l561 748l42 -28l-562 -748z" />
    <glyph glyph-name="onehalf" unicode="&#xbd;" horiz-adv-x="778" 
d="M179 289l52 371l-95 -66l-20 34l122 86h54l-59 -425h-54zM105 -6l561 748l42 -28l-562 -748zM458 0l6 43l196 168q27 23 39 35t25 32t16 42q4 28 -16 45.5t-59 17.5q-66 0 -94 -59l-51 4q20 53 64.5 78t89.5 25q59 0 93 -29.5t27 -79.5q-4 -30 -23.5 -60t-37 -46.5
t-52.5 -46.5l-144 -121h220l-7 -48h-292z" />
    <glyph glyph-name="threequarters" unicode="&#xbe;" horiz-adv-x="778" 
d="M640 0l14 102h-190l7 45l224 277h59l-39 -274h64l-7 -48h-64l-14 -102h-54zM659 150l28 202h-2l-162 -202h136zM190 488l6 48h23q96 7 106 75q4 26 -15 43.5t-54 17.5q-57 0 -95 -50l-35 25q56 73 137 73q56 0 89.5 -29.5t26.5 -78.5q-4 -33 -31.5 -60t-64.5 -39v-2
q42 -6 63 -36t16 -71q-8 -55 -53.5 -88t-108.5 -33q-105 0 -128 89l51 18q15 -59 84 -59q34 0 65.5 23t35.5 53q6 44 -22.5 62.5t-78.5 18.5h-17zM165 -6l561 748l42 -28l-562 -748z" />
    <glyph glyph-name="questiondown" unicode="&#xbf;" horiz-adv-x="463" 
d="M301 300l-12 -84q-5 -37 -25 -67t-46.5 -52t-52.5 -44t-46 -52t-25 -66q-8 -54 19 -87.5t81 -33.5q51 0 90 31.5t57 84.5l64 -8q-24 -75 -83.5 -118.5t-134.5 -43.5q-81 0 -126 46t-34 126q7 46 28.5 81.5t48.5 58.5t54 44t48 51.5t26 68.5l9 64h60zM338 444
q-2 -20 -18 -34t-36 -14t-32 14t-10 34q3 20 19 34t36 14t32 -14t9 -34z" />
    <glyph glyph-name="Agrave" unicode="&#xc0;" horiz-adv-x="685" 
d="M5 0l409 708h68l198 -708h-74l-51 188h-375l-106 -188h-69zM540 248l-106 388l-219 -388h325zM423 896l84 -144h-50l-114 144h80z" />
    <glyph glyph-name="Aacute" unicode="&#xc1;" horiz-adv-x="685" 
d="M5 0l409 708h68l198 -708h-74l-51 188h-375l-106 -188h-69zM540 248l-106 388l-219 -388h325zM391 752l124 144h80l-154 -144h-50z" />
    <glyph glyph-name="Acircumflex" unicode="&#xc2;" horiz-adv-x="685" 
d="M5 0l409 708h68l198 -708h-74l-51 188h-375l-106 -188h-69zM540 248l-106 388l-219 -388h325zM306 752l128 144h70l88 -144h-65l-66 108l-96 -108h-59z" />
    <glyph glyph-name="Atilde" unicode="&#xc3;" horiz-adv-x="685" 
d="M5 0l409 708h68l198 -708h-74l-51 188h-375l-106 -188h-69zM540 248l-106 388l-219 -388h325zM331 769h-36q10 40 37 68q29 34 67 34q28 0 72 -25q42 -23 60 -23q38 0 54 48h36q-10 -40 -33 -69q-28 -33 -65 -33q-22 0 -72 24q-48 24 -62 24q-40 0 -58 -48z" />
    <glyph glyph-name="Adieresis" unicode="&#xc4;" horiz-adv-x="685" 
d="M5 0l409 708h68l198 -708h-74l-51 188h-375l-106 -188h-69zM540 248l-106 388l-219 -388h325zM318 840q3 20 19 34t36 14t32 -14t9 -34t-19 -34t-36 -14t-32 14t-9 34zM508 840q3 20 19 34t36 14t32 -14t9 -34t-19 -34t-36 -14t-32 14t-9 34z" />
    <glyph glyph-name="Aring" unicode="&#xc5;" horiz-adv-x="685" 
d="M5 0l409 708h68l198 -708h-74l-51 188h-375l-106 -188h-69zM540 248l-106 388l-219 -388h325zM368 837q5 39 36.5 67t70.5 28q38 0 61 -29t17 -67q-5 -37 -36 -65.5t-69 -28.5q-39 0 -62.5 28.5t-17.5 66.5zM518 837q3 25 -11 42t-38 17t-43 -17.5t-23 -42.5
q-3 -25 11 -41.5t38 -16.5q25 0 43.5 17t22.5 42z" />
    <glyph glyph-name="AE" unicode="&#xc6;" horiz-adv-x="926" 
d="M-5 0l561 708h403l-9 -60h-293l-35 -252h276l-9 -60h-276l-39 -276h301l-8 -60h-367l26 188h-312l-149 -188h-70zM535 248l56 400h-12l-317 -400h273z" />
    <glyph glyph-name="Ccedilla" unicode="&#xc7;" horiz-adv-x="704" 
d="M647 152l49 -41q-112 -129 -282 -129q-18 0 -26 1l-41 -47l2 -2q13 7 32 7q34 0 55.5 -19t17.5 -53q-6 -42 -43 -63.5t-81 -21.5q-50 0 -92 21l18 32q30 -17 74 -17q23 0 44.5 11t24.5 32t-12.5 31.5t-37.5 10.5q-24 0 -45 -8l-14 15l64 75q-134 19 -204 120t-49 247
q23 163 140 267.5t278 104.5q158 0 228 -111l-60 -45q-25 47 -72.5 71.5t-103.5 24.5q-136 0 -231 -88.5t-113 -223.5q-19 -135 50.5 -223.5t205.5 -88.5q58 0 120 28t104 82z" />
    <glyph glyph-name="Egrave" unicode="&#xc8;" horiz-adv-x="593" 
d="M97 0l100 708h433l-9 -60h-367l-35 -252h344l-9 -60h-344l-39 -276h383l-8 -60h-449zM377 896l84 -144h-50l-114 144h80z" />
    <glyph glyph-name="Eacute" unicode="&#xc9;" horiz-adv-x="593" 
d="M97 0l100 708h433l-9 -60h-367l-35 -252h344l-9 -60h-344l-39 -276h383l-8 -60h-449zM345 752l124 144h80l-154 -144h-50z" />
    <glyph glyph-name="Ecircumflex" unicode="&#xca;" horiz-adv-x="593" 
d="M97 0l100 708h433l-9 -60h-367l-35 -252h344l-9 -60h-344l-39 -276h383l-8 -60h-449zM260 752l128 144h70l88 -144h-65l-66 108l-96 -108h-59z" />
    <glyph glyph-name="Edieresis" unicode="&#xcb;" horiz-adv-x="593" 
d="M97 0l100 708h433l-9 -60h-367l-35 -252h344l-9 -60h-344l-39 -276h383l-8 -60h-449zM272 840q3 20 19 34t36 14t32 -14t9 -34t-19 -34t-36 -14t-32 14t-9 34zM462 840q3 20 19 34t36 14t32 -14t9 -34t-19 -34t-36 -14t-32 14t-9 34z" />
    <glyph glyph-name="Igrave" unicode="&#xcc;" horiz-adv-x="260" 
d="M97 0l100 708h66l-100 -708h-66zM210 896l84 -144h-50l-114 144h80z" />
    <glyph glyph-name="Iacute" unicode="&#xcd;" horiz-adv-x="260" 
d="M97 0l100 708h66l-100 -708h-66zM178 752l124 144h80l-154 -144h-50z" />
    <glyph glyph-name="Icircumflex" unicode="&#xce;" horiz-adv-x="260" 
d="M97 0l100 708h66l-100 -708h-66zM93 752l128 144h70l88 -144h-65l-66 108l-96 -108h-59z" />
    <glyph glyph-name="Idieresis" unicode="&#xcf;" horiz-adv-x="260" 
d="M97 0l100 708h66l-100 -708h-66zM105 840q3 20 19 34t36 14t32 -14t9 -34t-19 -34t-36 -14t-32 14t-9 34zM295 840q3 20 19 34t36 14t32 -14t9 -34t-19 -34t-36 -14t-32 14t-9 34z" />
    <glyph glyph-name="Eth" unicode="&#xd0;" horiz-adv-x="741" 
d="M245 648l-35 -252h258l-8 -54h-258l-40 -282h136q149 0 252 74t124 220q20 146 -62 220t-231 74h-136zM88 0l48 342h-78l8 54h78l44 312h219q75 0 134 -17.5t94.5 -43.5t59 -62.5t33.5 -69t13 -69t2 -56t-3 -36.5q-3 -18 -7 -36.5t-18 -56t-33 -69.5t-53 -68.5
t-76.5 -62.5t-106.5 -43.5t-139 -17.5h-219z" />
    <glyph glyph-name="Ntilde" unicode="&#xd1;" horiz-adv-x="778" 
d="M97 0l100 708h85l343 -620h2l88 620h66l-100 -708h-85l-344 620h-2l-87 -620h-66zM377 769h-36q10 40 37 68q29 34 67 34q28 0 72 -25q42 -23 60 -23q38 0 54 48h36q-10 -40 -33 -69q-28 -33 -65 -33q-22 0 -72 24q-48 24 -62 24q-40 0 -58 -48z" />
    <glyph glyph-name="Ograve" unicode="&#xd2;" horiz-adv-x="834" 
d="M101 354q23 163 140 267.5t278 104.5t249 -104.5t65 -267.5t-140.5 -267.5t-278.5 -104.5t-248.5 104.5t-64.5 267.5zM167 354q-19 -135 50.5 -223.5t205.5 -88.5t230.5 88.5t113.5 223.5q18 135 -51 223.5t-205 88.5t-231 -88.5t-113 -223.5zM497 896l84 -144h-50
l-114 144h80z" />
    <glyph glyph-name="Oacute" unicode="&#xd3;" horiz-adv-x="834" 
d="M101 354q23 163 140 267.5t278 104.5t249 -104.5t65 -267.5t-140.5 -267.5t-278.5 -104.5t-248.5 104.5t-64.5 267.5zM167 354q-19 -135 50.5 -223.5t205.5 -88.5t230.5 88.5t113.5 223.5q18 135 -51 223.5t-205 88.5t-231 -88.5t-113 -223.5zM465 752l124 144h80
l-154 -144h-50z" />
    <glyph glyph-name="Ocircumflex" unicode="&#xd4;" horiz-adv-x="834" 
d="M101 354q23 163 140 267.5t278 104.5t249 -104.5t65 -267.5t-140.5 -267.5t-278.5 -104.5t-248.5 104.5t-64.5 267.5zM167 354q-19 -135 50.5 -223.5t205.5 -88.5t230.5 88.5t113.5 223.5q18 135 -51 223.5t-205 88.5t-231 -88.5t-113 -223.5zM380 752l128 144h70
l88 -144h-65l-66 108l-96 -108h-59z" />
    <glyph glyph-name="Otilde" unicode="&#xd5;" horiz-adv-x="834" 
d="M101 354q23 163 140 267.5t278 104.5t249 -104.5t65 -267.5t-140.5 -267.5t-278.5 -104.5t-248.5 104.5t-64.5 267.5zM167 354q-19 -135 50.5 -223.5t205.5 -88.5t230.5 88.5t113.5 223.5q18 135 -51 223.5t-205 88.5t-231 -88.5t-113 -223.5zM405 769h-36q10 40 37 68
q29 34 67 34q28 0 72 -25q42 -23 60 -23q38 0 54 48h36q-10 -40 -33 -69q-28 -33 -65 -33q-22 0 -72 24q-48 24 -62 24q-40 0 -58 -48z" />
    <glyph glyph-name="Odieresis" unicode="&#xd6;" horiz-adv-x="834" 
d="M101 354q23 163 140 267.5t278 104.5t249 -104.5t65 -267.5t-140.5 -267.5t-278.5 -104.5t-248.5 104.5t-64.5 267.5zM167 354q-19 -135 50.5 -223.5t205.5 -88.5t230.5 88.5t113.5 223.5q18 135 -51 223.5t-205 88.5t-231 -88.5t-113 -223.5zM392 840q3 20 19 34t36 14
t32 -14t9 -34t-19 -34t-36 -14t-32 14t-9 34zM582 840q3 20 19 34t36 14t32 -14t9 -34t-19 -34t-36 -14t-32 14t-9 34z" />
    <glyph glyph-name="multiply" unicode="&#xd7;" horiz-adv-x="666" 
d="M211 535l170 -198l227 198l28 -34l-226 -198l170 -198l-39 -34l-169 199l-227 -199l-30 34l228 198l-171 198z" />
    <glyph glyph-name="Oslash" unicode="&#xd8;" horiz-adv-x="834" 
d="M70 15l88 82q-79 103 -57 257q23 163 140 267.5t278 104.5q137 0 224 -79l85 81l30 -31l-86 -81q83 -104 61 -262q-23 -163 -140.5 -267.5t-278.5 -104.5q-141 0 -227 83l-86 -81zM208 144l485 457q-70 65 -182 65q-136 0 -231 -88.5t-113 -223.5q-18 -126 41 -210z
M722 569l-486 -458q67 -69 187 -69q136 0 230.5 88.5t113.5 223.5q18 130 -45 215z" />
    <glyph glyph-name="Ugrave" unicode="&#xd9;" horiz-adv-x="684" 
d="M700 708l-62 -437q-18 -126 -91 -207.5t-208 -81.5q-70 0 -118.5 24t-70.5 64t-30 92t2 109l62 437h66l-60 -420q-5 -34 -5 -64.5t7.5 -65t24.5 -59t50.5 -41t80.5 -16.5t85 16.5t62 41t41 59t25 65t13 64.5l60 420h66zM422 896l84 -144h-50l-114 144h80z" />
    <glyph glyph-name="Uacute" unicode="&#xda;" horiz-adv-x="684" 
d="M700 708l-62 -437q-18 -126 -91 -207.5t-208 -81.5q-70 0 -118.5 24t-70.5 64t-30 92t2 109l62 437h66l-60 -420q-5 -34 -5 -64.5t7.5 -65t24.5 -59t50.5 -41t80.5 -16.5t85 16.5t62 41t41 59t25 65t13 64.5l60 420h66zM390 752l124 144h80l-154 -144h-50z" />
    <glyph glyph-name="Ucircumflex" unicode="&#xdb;" horiz-adv-x="684" 
d="M700 708l-62 -437q-18 -126 -91 -207.5t-208 -81.5q-70 0 -118.5 24t-70.5 64t-30 92t2 109l62 437h66l-60 -420q-5 -34 -5 -64.5t7.5 -65t24.5 -59t50.5 -41t80.5 -16.5t85 16.5t62 41t41 59t25 65t13 64.5l60 420h66zM305 752l128 144h70l88 -144h-65l-66 108l-96 -108
h-59z" />
    <glyph glyph-name="Udieresis" unicode="&#xdc;" horiz-adv-x="684" 
d="M700 708l-62 -437q-18 -126 -91 -207.5t-208 -81.5q-70 0 -118.5 24t-70.5 64t-30 92t2 109l62 437h66l-60 -420q-5 -34 -5 -64.5t7.5 -65t24.5 -59t50.5 -41t80.5 -16.5t85 16.5t62 41t41 59t25 65t13 64.5l60 420h66zM317 840q3 20 19 34t36 14t32 -14t9 -34t-19 -34
t-36 -14t-32 14t-9 34zM507 840q3 20 19 34t36 14t32 -14t9 -34t-19 -34t-36 -14t-32 14t-9 34z" />
    <glyph glyph-name="Yacute" unicode="&#xdd;" horiz-adv-x="574" 
d="M254 0l43 305l-203 403h79l166 -336l267 336h74l-317 -403l-43 -305h-66zM335 752l124 144h80l-154 -144h-50z" />
    <glyph glyph-name="Thorn" unicode="&#xde;" horiz-adv-x="574" 
d="M97 0l100 708h65l-22 -156h139q32 0 61.5 -5t58.5 -18.5t48.5 -33.5t29 -53.5t3.5 -76.5q-13 -91 -81 -138t-158 -47h-153l-25 -180h-66zM232 492l-35 -252h150q63 0 110.5 30t56.5 95q9 64 -31.5 95.5t-104.5 31.5h-146z" />
    <glyph glyph-name="germandbls" unicode="&#xdf;" horiz-adv-x="593" 
d="M323 404l7 54h15q60 0 102.5 35t51.5 94q8 61 -23.5 94t-89.5 33q-77 0 -118.5 -52.5t-53.5 -136.5l-74 -525h-60l75 534q15 105 79.5 169.5t164.5 64.5q81 0 126.5 -47.5t33.5 -131.5q-8 -58 -40.5 -99t-80.5 -55v-2q155 -30 129 -212q-15 -106 -92 -166.5t-187 -60.5
q-27 0 -46 5l8 58q21 -9 52 -9q81 0 137.5 47t67.5 125q13 89 -35 136.5t-128 47.5h-21z" />
    <glyph glyph-name="agrave" unicode="&#xe0;" horiz-adv-x="519" 
d="M482 307l-16 -113q-18 -135 -18 -194h-56q-1 33 5 75h-2q-63 -87 -175 -87q-67 0 -110 34.5t-33 102.5q21 155 277 155h70l4 28q9 57 -23 84.5t-91 27.5q-80 0 -148 -52l-30 41q36 30 87.5 47.5t98.5 17.5q87 0 129.5 -41t30.5 -126zM418 232h-66q-86 0 -146.5 -24.5
t-68.5 -79.5q-6 -40 23 -63t70 -23q88 0 130.5 45.5t52.5 113.5zM314 708l83 -144h-50l-113 144h80z" />
    <glyph glyph-name="aacute" unicode="&#xe1;" horiz-adv-x="519" 
d="M482 307l-16 -113q-18 -135 -18 -194h-56q-1 33 5 75h-2q-63 -87 -175 -87q-67 0 -110 34.5t-33 102.5q21 155 277 155h70l4 28q9 57 -23 84.5t-91 27.5q-80 0 -148 -52l-30 41q36 30 87.5 47.5t98.5 17.5q87 0 129.5 -41t30.5 -126zM418 232h-66q-86 0 -146.5 -24.5
t-68.5 -79.5q-6 -40 23 -63t70 -23q88 0 130.5 45.5t52.5 113.5zM281 564l125 144h80l-155 -144h-50z" />
    <glyph glyph-name="acircumflex" unicode="&#xe2;" horiz-adv-x="519" 
d="M482 307l-16 -113q-18 -135 -18 -194h-56q-1 33 5 75h-2q-63 -87 -175 -87q-67 0 -110 34.5t-33 102.5q21 155 277 155h70l4 28q9 57 -23 84.5t-91 27.5q-80 0 -148 -52l-30 41q36 30 87.5 47.5t98.5 17.5q87 0 129.5 -41t30.5 -126zM418 232h-66q-86 0 -146.5 -24.5
t-68.5 -79.5q-6 -40 23 -63t70 -23q88 0 130.5 45.5t52.5 113.5zM196 564l129 144h70l87 -144h-65l-66 108l-96 -108h-59z" />
    <glyph glyph-name="atilde" unicode="&#xe3;" horiz-adv-x="519" 
d="M482 307l-16 -113q-18 -135 -18 -194h-56q-1 33 5 75h-2q-63 -87 -175 -87q-67 0 -110 34.5t-33 102.5q21 155 277 155h70l4 28q9 57 -23 84.5t-91 27.5q-80 0 -148 -52l-30 41q36 30 87.5 47.5t98.5 17.5q87 0 129.5 -41t30.5 -126zM418 232h-66q-86 0 -146.5 -24.5
t-68.5 -79.5q-6 -40 23 -63t70 -23q88 0 130.5 45.5t52.5 113.5zM222 581h-36q10 39 36 68q31 34 68 34q27 0 71 -25q44 -23 60 -23q39 0 55 48h36q-11 -42 -36 -72t-62 -30q-24 0 -72 24t-63 24q-39 0 -57 -48z" />
    <glyph glyph-name="adieresis" unicode="&#xe4;" horiz-adv-x="519" 
d="M482 307l-16 -113q-18 -135 -18 -194h-56q-1 33 5 75h-2q-63 -87 -175 -87q-67 0 -110 34.5t-33 102.5q21 155 277 155h70l4 28q9 57 -23 84.5t-91 27.5q-80 0 -148 -52l-30 41q36 30 87.5 47.5t98.5 17.5q87 0 129.5 -41t30.5 -126zM418 232h-66q-86 0 -146.5 -24.5
t-68.5 -79.5q-6 -40 23 -63t70 -23q88 0 130.5 45.5t52.5 113.5zM209 652q2 20 18 34t36 14t32 -14t10 -34q-3 -20 -19 -34t-36 -14t-32 14t-9 34zM399 652q2 20 18 34t36 14t32 -14t10 -34q-3 -20 -19 -34t-36 -14t-32 14t-9 34z" />
    <glyph glyph-name="aring" unicode="&#xe5;" horiz-adv-x="519" 
d="M482 307l-16 -113q-18 -135 -18 -194h-56q-1 33 5 75h-2q-63 -87 -175 -87q-67 0 -110 34.5t-33 102.5q21 155 277 155h70l4 28q9 57 -23 84.5t-91 27.5q-80 0 -148 -52l-30 41q36 30 87.5 47.5t98.5 17.5q87 0 129.5 -41t30.5 -126zM418 232h-66q-86 0 -146.5 -24.5
t-68.5 -79.5q-6 -40 23 -63t70 -23q88 0 130.5 45.5t52.5 113.5zM258 649q5 38 37 66.5t71 28.5q38 0 60.5 -29t17.5 -67q-5 -37 -36 -65.5t-69 -28.5q-39 0 -62.5 28t-18.5 67zM408 649q4 25 -9.5 42t-38.5 17q-24 0 -43 -17.5t-23 -42.5t10.5 -41.5t38.5 -16.5
q25 0 43.5 17t21.5 42z" />
    <glyph glyph-name="ae" unicode="&#xe6;" horiz-adv-x="852" 
d="M430 270l1 9q20 141 -122 141q-80 0 -148 -52l-30 41q36 30 87.5 47.5t98.5 17.5q66 0 107 -22t59 -74q31 45 82 70.5t101 25.5q91 0 142 -55.5t35 -167.5l-5 -35h-356q-13 -74 22.5 -124t113.5 -50q87 0 143 74l43 -34q-46 -51 -93 -72.5t-111 -21.5q-135 0 -166 114
q-70 -114 -219 -114q-67 0 -110 34.5t-33 102.5q3 25 15.5 48t37.5 46t74 37t116 14h115zM422 216h-117q-50 0 -85.5 -9.5t-53 -24.5t-25 -28t-9.5 -26q-6 -40 23 -63t70 -23q88 0 137 48.5t60 125.5zM490 270h296q9 66 -22 108t-104 42q-67 0 -114.5 -43.5t-55.5 -106.5z
" />
    <glyph glyph-name="ccedilla" unicode="&#xe7;" horiz-adv-x="481" 
d="M436 106l41 -38q-79 -80 -182 -80q-9 0 -14 1l-45 -53l2 -2q13 7 32 7q34 0 55.5 -19t17.5 -53q-6 -42 -43 -63.5t-81 -21.5q-50 0 -92 21l18 32q30 -17 74 -17q23 0 44.5 11t24.5 32t-12.5 31.5t-37.5 10.5q-24 0 -45 -8l-14 15l68 81q-84 14 -129 79.5t-32 158.5
q15 106 93.5 174.5t184.5 68.5q102 0 160 -80l-53 -36q-47 62 -115 62q-83 0 -140.5 -54.5t-69.5 -134.5q-11 -80 31.5 -134.5t125.5 -54.5q72 0 133 64z" />
    <glyph glyph-name="egrave" unicode="&#xe8;" horiz-adv-x="556" 
d="M461 124l39 -37q-81 -99 -214 -99q-105 0 -159.5 68t-39.5 176q14 104 89 173t176 69t149.5 -64.5t36.5 -151.5l-6 -42h-388q-3 -22 1.5 -49t18.5 -56.5t48 -49t83 -19.5q46 0 92.5 22.5t73.5 59.5zM152 270h328q8 62 -32.5 106t-106.5 44q-45 0 -83.5 -19.5t-59.5 -47
t-33 -49.5t-13 -34zM332 708l83 -144h-50l-113 144h80z" />
    <glyph glyph-name="eacute" unicode="&#xe9;" horiz-adv-x="556" 
d="M461 124l39 -37q-81 -99 -214 -99q-105 0 -159.5 68t-39.5 176q14 104 89 173t176 69t149.5 -64.5t36.5 -151.5l-6 -42h-388q-3 -22 1.5 -49t18.5 -56.5t48 -49t83 -19.5q46 0 92.5 22.5t73.5 59.5zM152 270h328q8 62 -32.5 106t-106.5 44q-45 0 -83.5 -19.5t-59.5 -47
t-33 -49.5t-13 -34zM299 564l125 144h80l-155 -144h-50z" />
    <glyph glyph-name="ecircumflex" unicode="&#xea;" horiz-adv-x="556" 
d="M461 124l39 -37q-81 -99 -214 -99q-105 0 -159.5 68t-39.5 176q14 104 89 173t176 69t149.5 -64.5t36.5 -151.5l-6 -42h-388q-3 -22 1.5 -49t18.5 -56.5t48 -49t83 -19.5q46 0 92.5 22.5t73.5 59.5zM152 270h328q8 62 -32.5 106t-106.5 44q-45 0 -83.5 -19.5t-59.5 -47
t-33 -49.5t-13 -34zM214 564l129 144h70l87 -144h-65l-66 108l-96 -108h-59z" />
    <glyph glyph-name="edieresis" unicode="&#xeb;" horiz-adv-x="556" 
d="M461 124l39 -37q-81 -99 -214 -99q-105 0 -159.5 68t-39.5 176q14 104 89 173t176 69t149.5 -64.5t36.5 -151.5l-6 -42h-388q-3 -22 1.5 -49t18.5 -56.5t48 -49t83 -19.5q46 0 92.5 22.5t73.5 59.5zM152 270h328q8 62 -32.5 106t-106.5 44q-45 0 -83.5 -19.5t-59.5 -47
t-33 -49.5t-13 -34zM227 652q2 20 18 34t36 14t32 -14t10 -34q-3 -20 -19 -34t-36 -14t-32 14t-9 34zM417 652q2 20 18 34t36 14t32 -14t10 -34q-3 -20 -19 -34t-36 -14t-32 14t-9 34z" />
    <glyph glyph-name="igrave" unicode="&#xec;" horiz-adv-x="240" 
d="M90 0l65 462h60l-65 -462h-60zM174 708l83 -144h-50l-113 144h80z" />
    <glyph glyph-name="iacute" unicode="&#xed;" horiz-adv-x="240" 
d="M90 0l65 462h60l-65 -462h-60zM141 564l125 144h80l-155 -144h-50z" />
    <glyph glyph-name="icircumflex" unicode="&#xee;" horiz-adv-x="240" 
d="M90 0l65 462h60l-65 -462h-60zM56 564l129 144h70l87 -144h-65l-66 108l-96 -108h-59z" />
    <glyph glyph-name="idieresis" unicode="&#xef;" horiz-adv-x="240" 
d="M90 0l65 462h60l-65 -462h-60zM69 652q2 20 18 34t36 14t32 -14t10 -34q-3 -20 -19 -34t-36 -14t-32 14t-9 34zM259 652q2 20 18 34t36 14t32 -14t10 -34q-3 -20 -19 -34t-36 -14t-32 14t-9 34z" />
    <glyph glyph-name="eth" unicode="&#xf0;" horiz-adv-x="594" 
d="M234 604l112 56q-46 48 -83 78l56 30q47 -39 84 -80l112 56l31 -30l-114 -57q175 -181 144 -401q-17 -123 -95 -195.5t-186 -72.5q-106 0 -164.5 68.5t-44.5 174.5q15 106 93.5 174.5t184.5 68.5q87 0 141 -55l2 2q-52 125 -132 207l-115 -57zM146 231
q-11 -80 31.5 -134.5t125.5 -54.5t140.5 54.5t68.5 134.5q12 80 -30.5 134.5t-125.5 54.5t-140.5 -54.5t-69.5 -134.5z" />
    <glyph glyph-name="ntilde" unicode="&#xf1;" horiz-adv-x="556" 
d="M80 0l47 332q2 17 7 67.5t6 62.5h60q-8 -70 -7 -81h3q24 40 70.5 66.5t100.5 26.5q176 0 148 -199l-39 -275h-60l38 272q22 148 -95 148q-70 0 -122 -49t-65 -140l-32 -231h-60zM240 581h-36q10 39 36 68q31 34 68 34q27 0 71 -25q44 -23 60 -23q39 0 55 48h36
q-11 -42 -36 -72t-62 -30q-24 0 -72 24t-63 24q-39 0 -57 -48z" />
    <glyph glyph-name="ograve" unicode="&#xf2;" horiz-adv-x="594" 
d="M86 231q15 106 93.5 174.5t184.5 68.5t164.5 -68.5t43.5 -174.5q-14 -106 -92.5 -174.5t-184.5 -68.5t-164.5 68.5t-44.5 174.5zM146 231q-11 -80 31.5 -134.5t125.5 -54.5t140.5 54.5t68.5 134.5q12 80 -30.5 134.5t-125.5 54.5t-140.5 -54.5t-69.5 -134.5zM351 708
l83 -144h-50l-113 144h80z" />
    <glyph glyph-name="oacute" unicode="&#xf3;" horiz-adv-x="594" 
d="M86 231q15 106 93.5 174.5t184.5 68.5t164.5 -68.5t43.5 -174.5q-14 -106 -92.5 -174.5t-184.5 -68.5t-164.5 68.5t-44.5 174.5zM146 231q-11 -80 31.5 -134.5t125.5 -54.5t140.5 54.5t68.5 134.5q12 80 -30.5 134.5t-125.5 54.5t-140.5 -54.5t-69.5 -134.5zM318 564
l125 144h80l-155 -144h-50z" />
    <glyph glyph-name="ocircumflex" unicode="&#xf4;" horiz-adv-x="594" 
d="M86 231q15 106 93.5 174.5t184.5 68.5t164.5 -68.5t43.5 -174.5q-14 -106 -92.5 -174.5t-184.5 -68.5t-164.5 68.5t-44.5 174.5zM146 231q-11 -80 31.5 -134.5t125.5 -54.5t140.5 54.5t68.5 134.5q12 80 -30.5 134.5t-125.5 54.5t-140.5 -54.5t-69.5 -134.5zM233 564
l129 144h70l87 -144h-65l-66 108l-96 -108h-59z" />
    <glyph glyph-name="otilde" unicode="&#xf5;" horiz-adv-x="594" 
d="M86 231q15 106 93.5 174.5t184.5 68.5t164.5 -68.5t43.5 -174.5q-14 -106 -92.5 -174.5t-184.5 -68.5t-164.5 68.5t-44.5 174.5zM146 231q-11 -80 31.5 -134.5t125.5 -54.5t140.5 54.5t68.5 134.5q12 80 -30.5 134.5t-125.5 54.5t-140.5 -54.5t-69.5 -134.5zM259 581h-36
q10 39 36 68q31 34 68 34q27 0 71 -25q44 -23 60 -23q39 0 55 48h36q-11 -42 -36 -72t-62 -30q-24 0 -72 24t-63 24q-39 0 -57 -48z" />
    <glyph glyph-name="odieresis" unicode="&#xf6;" horiz-adv-x="594" 
d="M86 231q15 106 93.5 174.5t184.5 68.5t164.5 -68.5t43.5 -174.5q-14 -106 -92.5 -174.5t-184.5 -68.5t-164.5 68.5t-44.5 174.5zM146 231q-11 -80 31.5 -134.5t125.5 -54.5t140.5 54.5t68.5 134.5q12 80 -30.5 134.5t-125.5 54.5t-140.5 -54.5t-69.5 -134.5zM246 652
q2 20 18 34t36 14t32 -14t10 -34q-3 -20 -19 -34t-36 -14t-32 14t-9 34zM436 652q2 20 18 34t36 14t32 -14t10 -34q-3 -20 -19 -34t-36 -14t-32 14t-9 34z" />
    <glyph glyph-name="divide" unicode="&#xf7;" horiz-adv-x="666" 
d="M117 279l7 48h510l-7 -48h-510zM346 457q3 21 20 36t38 15t34 -15t10 -36t-20 -36t-38 -15t-34 15t-10 36zM303 149q3 21 20 35.5t38 15.5q21 0 34 -15t10 -36t-20 -36t-38 -15t-34 15t-10 36z" />
    <glyph glyph-name="oslash" unicode="&#xf8;" horiz-adv-x="594" 
d="M39 2l80 71q-45 63 -33 158q15 106 93.5 174.5t184.5 68.5q91 0 149 -53l79 70l28 -29l-81 -71q47 -64 33 -160q-14 -106 -92.5 -174.5t-184.5 -68.5q-94 0 -150 54l-78 -69zM166 115l300 265q-42 40 -110 40q-83 0 -140.5 -54.5t-69.5 -134.5q-9 -68 20 -116zM492 349
l-300 -266q39 -41 111 -41q83 0 140.5 54.5t68.5 134.5q11 72 -20 118z" />
    <glyph glyph-name="ugrave" unicode="&#xf9;" horiz-adv-x="556" 
d="M536 462l-47 -332q-3 -19 -7.5 -70.5t-5.5 -59.5h-60q8 70 7 81h-3q-24 -40 -70.5 -66.5t-100.5 -26.5q-176 0 -148 199l39 275h60l-38 -272q-22 -148 95 -148q70 0 122 49t64 140l33 231h60zM332 708l83 -144h-50l-113 144h80z" />
    <glyph glyph-name="uacute" unicode="&#xfa;" horiz-adv-x="556" 
d="M536 462l-47 -332q-3 -19 -7.5 -70.5t-5.5 -59.5h-60q8 70 7 81h-3q-24 -40 -70.5 -66.5t-100.5 -26.5q-176 0 -148 199l39 275h60l-38 -272q-22 -148 95 -148q70 0 122 49t64 140l33 231h60zM299 564l125 144h80l-155 -144h-50z" />
    <glyph glyph-name="ucircumflex" unicode="&#xfb;" horiz-adv-x="556" 
d="M536 462l-47 -332q-3 -19 -7.5 -70.5t-5.5 -59.5h-60q8 70 7 81h-3q-24 -40 -70.5 -66.5t-100.5 -26.5q-176 0 -148 199l39 275h60l-38 -272q-22 -148 95 -148q70 0 122 49t64 140l33 231h60zM214 564l129 144h70l87 -144h-65l-66 108l-96 -108h-59z" />
    <glyph glyph-name="udieresis" unicode="&#xfc;" horiz-adv-x="556" 
d="M536 462l-47 -332q-3 -19 -7.5 -70.5t-5.5 -59.5h-60q8 70 7 81h-3q-24 -40 -70.5 -66.5t-100.5 -26.5q-176 0 -148 199l39 275h60l-38 -272q-22 -148 95 -148q70 0 122 49t64 140l33 231h60zM227 652q2 20 18 34t36 14t32 -14t10 -34q-3 -20 -19 -34t-36 -14t-32 14
t-9 34zM417 652q2 20 18 34t36 14t32 -14t10 -34q-3 -20 -19 -34t-36 -14t-32 14t-9 34z" />
    <glyph glyph-name="yacute" unicode="&#xfd;" horiz-adv-x="463" 
d="M513 462l-323 -605q-51 -97 -141 -97q-25 0 -57 9l13 56q37 -11 53 -11q21 0 38.5 13t27.5 27t22 37l57 107l-123 464h67l98 -389l204 389h64zM253 564l125 144h80l-155 -144h-50z" />
    <glyph glyph-name="thorn" unicode="&#xfe;" horiz-adv-x="611" 
d="M35 -228l138 984h60l-52 -375h2q33 45 87.5 69t110.5 24q106 0 164.5 -68.5t43.5 -174.5q-14 -106 -92.5 -174.5t-184.5 -68.5q-56 0 -104 24t-68 69h-2l-43 -309h-60zM153 231q-11 -79 37.5 -134t129.5 -55q83 0 140.5 54.5t68.5 134.5q12 80 -30.5 134.5t-125.5 54.5
q-81 0 -145 -55t-75 -134z" />
    <glyph glyph-name="ydieresis" unicode="&#xff;" horiz-adv-x="463" 
d="M513 462l-323 -605q-51 -97 -141 -97q-25 0 -57 9l13 56q37 -11 53 -11q21 0 38.5 13t27.5 27t22 37l57 107l-123 464h67l98 -389l204 389h64zM181 652q2 20 18 34t36 14t32 -14t10 -34q-3 -20 -19 -34t-36 -14t-32 14t-9 34zM371 652q2 20 18 34t36 14t32 -14t10 -34
q-3 -20 -19 -34t-36 -14t-32 14t-9 34z" />
    <glyph glyph-name="dotlessi" unicode="&#x131;" horiz-adv-x="240" 
d="M90 0l65 462h60l-65 -462h-60z" />
    <glyph glyph-name="Lslash" unicode="&#x141;" horiz-adv-x="500" 
d="M97 0l32 231l-81 -64l10 65l80 63l59 413h66l-51 -358l243 189l-9 -62l-243 -189l-32 -228h330l-8 -60h-396z" />
    <glyph glyph-name="lslash" unicode="&#x142;" horiz-adv-x="240" 
d="M90 0l46 324l-96 -85l9 67l96 85l51 365h60l-43 -305l96 86l-9 -67l-96 -85l-54 -385h-60z" />
    <glyph glyph-name="OE" unicode="&#x152;" horiz-adv-x="944" 
d="M628 336l-39 -276h304l-8 -60h-472q-147 0 -236.5 99t-67.5 255q16 112 83.5 194.5t159 121t193.5 38.5h432l-9 -60h-296l-35 -252h279l-9 -60h-279zM523 60l83 588h-78q-55 0 -110.5 -17.5t-107 -51.5t-88.5 -92.5t-47 -132.5q-11 -78 11.5 -138t66 -92t91.5 -48t95 -16
h84z" />
    <glyph glyph-name="oe" unicode="&#x153;" horiz-adv-x="907" 
d="M545 270h296q9 66 -22 108t-104 42q-67 0 -114.5 -43.5t-55.5 -106.5zM893 216h-356q-13 -74 22.5 -124t113.5 -50q87 0 143 74l43 -34q-46 -51 -93 -72.5t-111 -21.5q-135 0 -166 114h-2q-36 -55 -92 -84.5t-123 -29.5q-99 0 -154.5 68.5t-41.5 174.5q15 105 90.5 174
t174.5 69q139 0 182 -115q27 48 77.5 81.5t120.5 33.5q91 0 142 -55.5t35 -167.5zM136 231q-10 -78 29.5 -133.5t116.5 -55.5q78 0 132 54.5t65 134.5q12 80 -27.5 134.5t-116.5 54.5t-132.5 -56t-66.5 -133z" />
    <glyph glyph-name="Scaron" unicode="&#x160;" horiz-adv-x="556" 
d="M66 89l68 42q41 -89 150 -89q68 0 118.5 38t59.5 101q6 40 -10.5 67.5t-46.5 42t-67 26.5t-74 26.5t-66 35.5t-44 59.5t-7 93.5q12 90 85.5 142t168.5 52q124 0 181 -89l-63 -41q-41 70 -128 70q-68 0 -118.5 -35t-59.5 -99q-6 -43 10 -72t46 -44.5t67.5 -27t74.5 -25
t66 -33.5t44 -57.5t7 -91.5q-13 -92 -85 -145.5t-163 -53.5q-153 0 -214 107zM543 896l-126 -144h-70l-89 144h62l67 -114l102 114h54z" />
    <glyph glyph-name="scaron" unicode="&#x161;" horiz-adv-x="426" 
d="M40 82l58 36q13 -36 47 -56t76 -20q41 0 76.5 23.5t41.5 61.5q5 35 -20.5 53.5t-65 26.5t-78 18.5t-63 38.5t-17.5 77q9 63 61.5 98t115.5 35q119 0 150 -87l-58 -32q-26 65 -100 65q-36 0 -70 -20.5t-38 -53.5q-5 -34 20.5 -51.5t65 -25t78.5 -17.5t62.5 -39.5
t16.5 -81.5q-9 -68 -63 -105.5t-124 -37.5q-132 0 -172 94zM452 708l-127 -144h-70l-88 144h62l66 -114l103 114h54z" />
    <glyph glyph-name="Ydieresis" unicode="&#x178;" horiz-adv-x="574" 
d="M254 0l43 305l-203 403h79l166 -336l267 336h74l-317 -403l-43 -305h-66zM262 840q3 20 19 34t36 14t32 -14t9 -34t-19 -34t-36 -14t-32 14t-9 34zM452 840q3 20 19 34t36 14t32 -14t9 -34t-19 -34t-36 -14t-32 14t-9 34z" />
    <glyph glyph-name="Zcaron" unicode="&#x17d;" horiz-adv-x="556" 
d="M23 0l7 52l498 596h-408l9 60h493l-8 -54l-501 -594h428l-8 -60h-510zM543 896l-126 -144h-70l-89 144h62l67 -114l102 114h54z" />
    <glyph glyph-name="zcaron" unicode="&#x17e;" horiz-adv-x="426" 
d="M27 0l5 36l329 372h-263l8 54h346l-5 -36l-328 -372h288l-8 -54h-372zM452 708l-127 -144h-70l-88 144h62l66 -114l103 114h54z" />
    <glyph glyph-name="florin" unicode="&#x192;" 
d="M454 419l-7 -48h-117l-127 -391q-42 -124 -160 -124q-49 0 -76 24l37 47q18 -17 50 -17q38 0 61.5 27t41.5 84l113 350h-108l7 48h117l51 154q46 147 163 147q50 0 86 -30l-38 -45q-28 21 -55 21q-67 0 -96 -90l-51 -157h108z" />
    <glyph glyph-name="circumflex" unicode="&#x2c6;" horiz-adv-x="240" 
d="M56 564l129 144h70l87 -144h-65l-66 108l-96 -108h-59z" />
    <glyph glyph-name="caron" unicode="&#x2c7;" horiz-adv-x="240" 
d="M359 708l-127 -144h-70l-88 144h62l66 -114l103 114h54z" />
    <glyph glyph-name="uni02C9" unicode="&#x2c9;" horiz-adv-x="240" 
d="M344 654l-7 -48h-264l7 48h264z" />
    <glyph glyph-name="breve" unicode="&#x2d8;" horiz-adv-x="240" 
d="M76 708h42q0 -38 24 -58t65 -20q45 0 72 17.5t43 60.5h42q-16 -59 -60 -92.5t-104 -33.5t-95 33.5t-29 92.5z" />
    <glyph glyph-name="dotaccent" unicode="&#x2d9;" horiz-adv-x="240" 
d="M167 652q2 20 18 34t36 14t32 -14t10 -34q-3 -20 -19 -34t-36 -14t-32 14t-9 34z" />
    <glyph glyph-name="ring" unicode="&#x2da;" horiz-adv-x="240" 
d="M118 649q5 38 37 66.5t71 28.5q38 0 60.5 -29t17.5 -67q-5 -37 -36 -65.5t-69 -28.5q-39 0 -62.5 28t-18.5 67zM268 649q4 25 -9.5 42t-38.5 17q-24 0 -43 -17.5t-23 -42.5t10.5 -41.5t38.5 -16.5q25 0 43.5 17t21.5 42z" />
    <glyph glyph-name="ogonek" unicode="&#x2db;" horiz-adv-x="240" 
d="M148 -145l13 -38q-40 -33 -89 -33q-41 0 -63.5 22t-17.5 60q9 65 107 134h45q-30 -21 -57.5 -54t-32.5 -67q-6 -47 36 -47q34 0 59 23z" />
    <glyph glyph-name="tilde" unicode="&#x2dc;" horiz-adv-x="240" 
d="M82 581h-36q10 39 36 68q31 34 68 34q27 0 71 -25q44 -23 60 -23q39 0 55 48h36q-11 -42 -36 -72t-62 -30q-24 0 -72 24t-63 24q-39 0 -57 -48z" />
    <glyph glyph-name="hungarumlaut" unicode="&#x2dd;" horiz-adv-x="240" 
d="M68 564l125 144h80l-155 -144h-50zM214 564l125 144h80l-155 -144h-50z" />
    <glyph glyph-name="uni03A9" unicode="&#x3a9;" horiz-adv-x="676" 
d="M200 50v3q-49 55 -74 139t-11 186q21 152 114 245t213 93t182 -96.5t42 -237.5q-15 -106 -66 -192.5t-113 -136.5v-3h145l-7 -50h-219l5 37q69 46 123.5 134t70.5 199q10 71 -3.5 136.5t-57 112.5t-110.5 47q-98 0 -170.5 -85t-90.5 -212q-15 -105 16 -197t84 -135
l-5 -37h-219l7 50h144z" />
    <glyph glyph-name="uni03BC" unicode="&#x3bc;" horiz-adv-x="556" 
d="M536 462l-47 -332q-3 -19 -7.5 -70.5t-5.5 -59.5h-60q8 70 7 81h-3q-24 -40 -70.5 -66.5t-100.5 -26.5q-75 0 -111 38l-36 -254h-59l97 690h60l-38 -272q-22 -148 95 -148q70 0 122 49t64 140l33 231h60z" />
    <glyph glyph-name="pi" unicode="&#x3c0;" horiz-adv-x="530" 
d="M568 472h-77l-46 -327q-13 -100 -6 -145h-57q-11 28 5 139l46 333h-180q-20 -113 -61.5 -259t-76.5 -213h-57q38 77 77.5 218t58.5 254q-72 0 -107 -13l-6 40q45 25 134 25h367z" />
    <glyph glyph-name="uni2010" unicode="&#x2010;" horiz-adv-x="333" 
d="M73 210l7 54h247l-7 -54h-247z" />
    <glyph glyph-name="endash" unicode="&#x2013;" horiz-adv-x="500" 
d="M30 210l7 54h500l-7 -54h-500z" />
    <glyph glyph-name="emdash" unicode="&#x2014;" horiz-adv-x="1000" 
d="M30 210l7 54h1000l-7 -54h-1000z" />
    <glyph glyph-name="quoteleft" unicode="&#x2018;" horiz-adv-x="260" 
d="M298 708l-97 -228h-72l109 228h60z" />
    <glyph glyph-name="quoteright" unicode="&#x2019;" horiz-adv-x="260" 
d="M129 480l96 228h73l-110 -228h-59z" />
    <glyph glyph-name="quotesinglbase" unicode="&#x201a;" horiz-adv-x="260" 
d="M43 -138l95 228h73l-109 -228h-59z" />
    <glyph glyph-name="quotedblleft" unicode="&#x201c;" 
d="M341 708l-96 -228h-73l110 228h59zM515 708l-96 -228h-73l110 228h59z" />
    <glyph glyph-name="quotedblright" unicode="&#x201d;" 
d="M346 480l96 228h73l-110 -228h-59zM172 480l96 228h73l-110 -228h-59z" />
    <glyph glyph-name="quotedblbase" unicode="&#x201e;" 
d="M260 -138l95 228h73l-109 -228h-59zM86 -138l95 228h73l-109 -228h-59z" />
    <glyph glyph-name="dagger" unicode="&#x2020;" 
d="M212 -126l83 587h-192l7 48h192l28 199h60l-28 -199h192l-7 -48h-192l-83 -587h-60z" />
    <glyph glyph-name="daggerdbl" unicode="&#x2021;" 
d="M212 -126l28 199h-192l7 48h192l48 340h-192l7 48h192l28 199h60l-28 -199h192l-7 -48h-192l-48 -340h192l-7 -48h-192l-28 -199h-60z" />
    <glyph glyph-name="bullet" unicode="&#x2022;" horiz-adv-x="500" 
d="M123 354q11 74 70 125.5t132 51.5q74 0 118 -52t34 -125q-11 -74 -70 -125.5t-132 -51.5q-74 0 -118 52t-34 125z" />
    <glyph glyph-name="ellipsis" unicode="&#x2026;" horiz-adv-x="1000" 
d="M125 42q3 20 19 34t36 14t32 -14t9 -34t-19 -34t-36 -14t-32 14t-9 34zM458 42q3 20 19 34t36 14t32 -14t9 -34t-19 -34t-36 -14t-32 14t-9 34zM791 42q3 20 19 34t36 14t32 -14t9 -34t-19 -34t-36 -14t-32 14t-9 34z" />
    <glyph glyph-name="perthousand" unicode="&#x2030;" horiz-adv-x="981" 
d="M326 141q9 63 60 108t114 45t102 -45t30 -108t-60.5 -108t-114.5 -45t-101.5 45t-29.5 108zM374 141q-6 -44 20.5 -74.5t69.5 -30.5q44 0 79 31t41 74q6 44 -20.5 74.5t-69.5 30.5q-44 0 -79 -31t-41 -74zM669 141q9 63 60 108t114 45t102 -45t30 -108t-60.5 -108
t-114.5 -45t-101.5 45t-29.5 108zM717 141q-6 -44 20.5 -74.5t69.5 -30.5q44 0 79 31t41 74q6 44 -20.5 74.5t-69.5 30.5q-44 0 -79 -31t-41 -74zM106 567q8 63 59.5 108t114.5 45t101.5 -45t30.5 -108q-9 -63 -60.5 -108t-114.5 -45t-101.5 45t-29.5 108zM154 567
q-6 -44 20.5 -74.5t69.5 -30.5q44 0 79 31t41 74t-20.5 74t-70.5 31q-43 0 -78 -30.5t-41 -74.5zM65 -6l561 748l42 -28l-562 -748z" />
    <glyph glyph-name="guilsinglleft" unicode="&#x2039;" horiz-adv-x="315" 
d="M205 34l-109 203l166 203l38 -29l-141 -174l94 -176z" />
    <glyph glyph-name="guilsinglright" unicode="&#x203a;" horiz-adv-x="315" 
d="M177 440l108 -203l-165 -203l-38 29l140 174l-93 176z" />
    <glyph glyph-name="fraction" unicode="&#x2044;" horiz-adv-x="168" 
d="M-168 -6l561 748l42 -28l-562 -748z" />
    <glyph glyph-name="Euro" unicode="&#x20ac;" 
d="M502 79q-31 -39 -82.5 -65t-102.5 -26q-96 0 -145.5 65.5t-48.5 189.5h-72l20 47h55q2 28 6 60q3 17 15 77h-71l22 47h63q42 129 118 187.5t163 58.5q81 0 138 -31l-26 -56q-56 33 -111 33q-75 0 -131.5 -49t-87.5 -143h271l-19 -47h-266q-9 -39 -15 -80q-5 -30 -6 -57
h234l-19 -47h-217q0 -204 138 -204q41 0 79 20t60 51z" />
    <glyph glyph-name="afii61289" unicode="&#x2113;" horiz-adv-x="452" 
d="M417 135l27 -24q-77 -118 -187 -118q-77 0 -106.5 54t-19.5 141l2 14q-13 -9 -61 -48l-15 36q63 50 85 70l39 282q18 126 66 181t106 55q55 0 78 -43.5t13 -113.5q-24 -172 -249 -374l-5 -33q-12 -89 12.5 -131.5t72.5 -42.5q42 0 79 28t63 67zM237 547l-34 -238
q181 179 199 310q16 112 -56 112q-33 0 -64.5 -45t-44.5 -139z" />
    <glyph glyph-name="trademark" unicode="&#x2122;" horiz-adv-x="990" 
d="M259 296l51 364h-133l7 48h320l-7 -48h-133l-51 -364h-54zM520 296l58 412h86l83 -328l176 328h83l-58 -412h-54l50 361h-2l-192 -361h-32l-92 361h-2l-50 -361h-54z" />
    <glyph glyph-name="Omega" unicode="&#x2126;" horiz-adv-x="676" 
d="M200 50v3q-49 55 -74 139t-11 186q21 152 114 245t213 93t182 -96.5t42 -237.5q-15 -106 -66 -192.5t-113 -136.5v-3h145l-7 -50h-219l5 37q69 46 123.5 134t70.5 199q10 71 -3.5 136.5t-57 112.5t-110.5 47q-98 0 -170.5 -85t-90.5 -212q-15 -105 16 -197t84 -135
l-5 -37h-219l7 50h144z" />
    <glyph glyph-name="estimated" unicode="&#x212e;" horiz-adv-x="984" 
d="M949 344h-659q-5 0 -5 -5v-199q0 -12 9 -23q105 -108 249 -108q77 0 145 32.5t117 88.5h58q-55 -65 -139.5 -103t-181.5 -38q-168 0 -287 107t-119 258t119 258.5t287 107.5q169 0 288 -107t119 -259v-10zM799 370v200q0 14 -9 24q-106 104 -247 104q-143 0 -248 -107
q-10 -10 -10 -25v-196q0 -7 5 -7h505q4 0 4 7z" />
    <glyph glyph-name="partialdiff" unicode="&#x2202;" horiz-adv-x="509" 
d="M193 692l-16 44q72 54 161 54q96 0 151 -96.5t29 -282.5q-26 -188 -105 -303t-195 -115q-85 0 -122 66.5t-23 162.5q16 114 86 186t151 72q58 0 96 -31t49 -64h1q5 20 7 45q20 138 -21 224t-116 86q-71 0 -133 -48zM230 43h1q68 0 124.5 79t84.5 196q-9 43 -42.5 78
t-85.5 35q-62 0 -115 -61t-66 -146q-11 -81 16 -131t83 -50z" />
    <glyph glyph-name="uni2206" unicode="&#x2206;" horiz-adv-x="605" 
d="M31 0l6 43l336 682h66l142 -681l-6 -44h-544zM97 49h422l-87 413q-4 22 -19 90.5t-18 95.5h-4q-9 -22 -40.5 -86t-41.5 -86z" />
    <glyph glyph-name="product" unicode="&#x220f;" horiz-adv-x="752" 
d="M726 650h-104v-747h-58v747h-278v-747h-58v747h-103v55h601v-55z" />
    <glyph glyph-name="summation" unicode="&#x2211;" horiz-adv-x="619" 
d="M598 -98h-476v42l260 358l-248 361v42h449v-52h-367v-4l234 -338l-252 -347v-4h400v-58z" />
    <glyph glyph-name="minus" unicode="&#x2212;" horiz-adv-x="666" 
d="M117 279l7 48h510l-7 -48h-510z" />
    <glyph glyph-name="uni2215" unicode="&#x2215;" horiz-adv-x="168" 
d="M-168 -6l561 748l42 -28l-562 -748z" />
    <glyph glyph-name="uni2219" unicode="&#x2219;" horiz-adv-x="260" 
d="M127 318q2 20 18 34t36 14t32 -14t10 -34q-3 -20 -19 -34t-36 -14t-32 14t-9 34z" />
    <glyph glyph-name="radical" unicode="&#x221a;" horiz-adv-x="640" 
d="M637 837l-209 -991h-55l-155 477l-71 -27l-13 39l123 47l126 -383q2 -10 16 -73l1 -1q3 29 12 71l179 841h46z" />
    <glyph glyph-name="infinity" unicode="&#x221e;" horiz-adv-x="809" 
d="M760 294v-1q0 -66 -43 -108t-102 -42q-44 0 -83.5 27.5t-94.5 88.5q-33 -37 -54.5 -57.5t-57 -39.5t-72.5 -19q-58 0 -100 43t-42 104q0 65 42.5 107.5t106.5 42.5q49 0 91 -30.5t89 -86.5q29 33 40.5 44.5t37.5 33.5t50.5 30.5t53.5 8.5q62 0 100 -40.5t38 -105.5z
M259 183h1q15 0 31 5.5t27.5 11.5t28 20.5t23 21.5t24 25t20.5 22q-25 30 -35.5 41.5t-33.5 32.5t-45 29.5t-47 8.5q-45 0 -71.5 -32.5t-26.5 -79.5q0 -45 29 -75.5t75 -30.5zM617 401h-1q-23 0 -48.5 -14t-39 -25.5t-39 -39t-27.5 -29.5q56 -62 87.5 -86t68.5 -24
q45 0 72 32.5t27 74.5q0 52 -28 81.5t-72 29.5z" />
    <glyph glyph-name="integral" unicode="&#x222b;" horiz-adv-x="436" 
d="M420 846l-12 -43q-14 10 -34 10q-31 0 -49 -24q-33 -41 -33 -183q0 -77 6 -255.5t6 -259.5q0 -140 -43 -204q-30 -46 -88 -46q-34 0 -59 16l12 44q29 -11 43 -11q27 0 45 24q34 47 34 178q0 82 -6 262t-6 258q0 156 49 210q34 37 85 37q30 0 50 -13z" />
    <glyph glyph-name="approxequal" unicode="&#x2248;" horiz-adv-x="596" 
d="M524 424l27 -22q-44 -91 -121 -91q-27 0 -49 9t-63 32q-58 33 -90 33q-31 0 -53 -19t-43 -54l-28 21q47 92 130 92q16 0 34 -5t27 -9.5t26.5 -14.5t20.5 -12q2 -1 13 -7t13.5 -7.5t11.5 -6t13 -5.5t12 -3.5t14.5 -3t13.5 -0.5q28 0 49.5 18t41.5 55zM524 264l27 -22
q-44 -91 -121 -91q-27 0 -49 9t-63 32q-60 33 -90 33q-31 0 -52.5 -19t-43.5 -54l-28 21q46 92 130 92q16 0 34 -5t26.5 -9t27.5 -14.5t20 -11.5t12.5 -7.5t13.5 -7.5t11.5 -5.5t13.5 -6t12 -4t14.5 -3t14.5 -0.5q28 0 48.5 17.5t41.5 55.5z" />
    <glyph glyph-name="notequal" unicode="&#x2260;" horiz-adv-x="609" 
d="M450 496l-44 -96h153v-42h-170l-65 -143h235v-41h-252l-52 -113l-33 15l45 98h-146v41h163l65 143h-228v42h245l51 111z" />
    <glyph glyph-name="lessequal" unicode="&#x2264;" horiz-adv-x="619" 
d="M567 102l-430 220v43l429 220v-51l-383 -188v-2l384 -191v-51zM569 18h-437v43h437v-43z" />
    <glyph glyph-name="greaterequal" unicode="&#x2265;" horiz-adv-x="619" 
d="M138 585l429 -220v-43l-429 -220v51l383 189v3l-383 189v51zM569 18h-436v43h436v-43z" />
    <glyph glyph-name="lozenge" unicode="&#x25ca;" horiz-adv-x="641" 
d="M588 352l-193 -393h-49l-191 393l193 395h49zM532 351l-142 290q-9 21 -18 52h-3q-9 -32 -18 -52l-141 -287l143 -292q10 -21 17 -51h3q6 25 17 51z" />
    <glyph glyph-name="fi" unicode="&#xfb01;" horiz-adv-x="519" 
d="M369 0l65 462h60l-65 -462h-60zM445 645q2 19 17 32t34 13t30 -13t9 -32q-3 -19 -18 -32t-34 -13t-30 13t-8 32zM114 0l57 408h-96l8 54h96l21 151q12 81 59 118t101 37q42 0 67 -12l-19 -52q-19 10 -53 10q-80 0 -98 -123l-18 -129h108l-8 -54h-108l-57 -408h-60z" />
    <glyph glyph-name="fl" unicode="&#xfb02;" horiz-adv-x="519" 
d="M114 0l57 408h-96l8 54h96l21 151q12 81 59 118t101 37q42 0 67 -12l-19 -52q-19 10 -53 10q-80 0 -98 -123l-18 -129h108l-8 -54h-108l-57 -408h-60zM369 0l106 756h60l-106 -756h-60z" />
    <glyph glyph-name="a.superior" horiz-adv-x="337" 
d="M271 602h64l1 9q3 34 -12.5 50.5t-61.5 16.5q-50 0 -99 -35l-20 38q52 39 136 39q61 0 87 -25t18 -84l-11 -80q-10 -68 -10 -101h-49q-1 8 1 25.5t2 20.5h-2q-39 -52 -111 -52q-47 0 -76 20t-23 61q14 97 166 97zM329 560h-38q-131 0 -138 -53q-2 -17 18 -29t48 -12
q48 0 76 27.5t33 59.5z" />
    <glyph glyph-name="o.superior" horiz-adv-x="386" 
d="M114 572q10 66 59 107t120 41q70 0 109.5 -40.5t29.5 -107.5q-9 -65 -60 -106.5t-120 -41.5q-71 0 -109 41t-29 107zM162 572q-5 -43 21.5 -74.5t73.5 -31.5q48 0 84.5 31t42.5 75q7 46 -20 76t-77 30q-47 0 -83 -31.5t-42 -74.5z" />
    <glyph glyph-name="one.superior" horiz-adv-x="338" 
d="M218 289l52 371l-95 -66l-20 34l122 86h54l-59 -425h-54z" />
    <glyph glyph-name="two.superior" horiz-adv-x="338" 
d="M64 289l6 43l195 168q27 23 39.5 35t25.5 32t16 42q4 28 -16.5 45.5t-59.5 17.5q-66 0 -94 -59l-50 4q20 53 64 78t89 25q60 0 94 -29.5t27 -79.5q-4 -30 -23.5 -59.5t-37.5 -47t-53 -46.5l-144 -121h220l-6 -48h-292z" />
    <glyph glyph-name="three.superior" horiz-adv-x="338" 
d="M196 488l6 48h23q37 0 69 18.5t37 56.5q4 26 -15 43.5t-54 17.5q-57 0 -95 -50l-35 25q56 73 137 73q56 0 89.5 -29.5t26.5 -78.5q-4 -33 -31.5 -60t-64.5 -39v-2q42 -6 63 -36t16 -71q-8 -55 -53.5 -88t-108.5 -33q-106 0 -127 89l50 18q15 -59 84 -59q34 0 65.5 23
t35.5 53q6 44 -22.5 62.5t-78.5 18.5h-17z" />
    </font>
</defs>
</svg>
